<svg width="1145" height="917" viewBox="0 0 1145 917" fill="none" xmlns="http://www.w3.org/2000/svg">
<g filter="url(#filter0_f_2004_443)">
<path d="M404.936 76.4518C412.293 63.7429 428.797 59.7904 441.113 67.7873L595.989 168.345C606.975 175.478 610.824 189.74 604.92 201.432L568.457 273.629C562.623 285.179 549.101 290.578 536.916 286.222L456.119 257.334L410.602 233.752C409.379 233.119 408.21 232.388 407.104 231.567L391.737 220.151C389.786 218.702 388.052 216.984 386.585 215.047L377.328 202.827C375.481 200.388 374.085 197.639 373.205 194.709L367.058 174.22C366.34 171.828 365.975 169.344 365.975 166.846L365.975 154.2C365.975 150.724 366.681 147.285 368.05 144.091L374.535 128.963L404.936 76.4518Z" fill="white"/>
</g>
<g filter="url(#filter1_f_2004_443)">
<rect x="226.707" y="558.335" width="250.669" height="102.526" rx="25.6579" transform="rotate(-70 226.707 558.335)" fill="white"/>
</g>
<g filter="url(#filter2_f_2004_443)">
<path d="M24.339 867.751C21.3076 862.976 19.9386 857.334 20.4449 851.701L23.2728 820.241C23.8481 813.84 28.3169 808.46 34.5033 806.72C39.4897 805.318 43.4448 801.515 45.0417 796.587L114.246 583.044C118.693 569.32 133.578 561.959 147.184 566.756L185.166 580.145C194.447 583.417 199.596 593.329 196.937 602.803L196.511 604.321C194.233 612.435 198.295 620.985 206.024 624.346L210.917 626.473C215.483 628.458 218 633.402 216.92 638.262C215.513 644.597 208.709 648.108 202.731 645.586L191.048 640.657C183.926 637.653 175.773 641.501 173.567 648.909C171.464 655.969 163.914 659.865 156.942 657.488L156.616 657.377C149.895 655.085 142.558 658.475 139.947 665.079L104.748 754.086C99.407 767.593 106.332 782.836 120.019 787.699L174.383 807.012C178.792 808.579 183.71 807.278 186.768 803.737L188.819 801.363C191.005 798.831 194.631 798.106 197.622 799.602C200.1 800.84 201.664 803.372 201.664 806.142V809.123C201.664 814.49 205.189 819.219 210.332 820.753L216.231 822.513C226.383 825.541 237.164 820.291 241.041 810.431L271.669 732.537C276.589 720.024 290.336 713.431 303.174 717.428L317.823 721.989C330.775 726.021 338.35 739.437 335.113 752.61L304.596 876.796C301.778 888.267 291.492 896.331 279.68 896.331H56.5874C47.8056 896.331 39.6338 891.84 34.9266 884.426L24.339 867.751Z" fill="white"/>
</g>
<g filter="url(#filter3_f_2004_443)">
<path d="M199.751 782.479C196.099 781.246 194.164 777.26 195.455 773.628C196.694 770.142 194.964 766.299 191.532 764.916L179.573 760.093C169.795 756.151 164.647 745.393 167.712 735.306L169.929 728.006C173.335 716.796 184.876 710.171 196.274 712.885L206.671 715.36C209.81 716.108 213.074 714.749 214.756 711.995C216.571 709.024 220.201 707.705 223.5 708.819L225.655 709.546C231.045 711.366 233.939 717.21 232.12 722.6L213.602 777.454C211.978 782.263 206.763 784.846 201.954 783.222L199.751 782.479Z" fill="white"/>
</g>
<g filter="url(#filter4_f_2004_443)">
<path d="M618.374 214.63C625.327 201.363 642.119 196.848 654.788 204.839L907.982 364.546C919.27 371.667 923.215 386.253 917.053 398.092L910.413 410.853C903.985 423.204 888.881 428.175 876.374 422.055L783.135 376.427C774.098 372.004 763.381 377.722 762.022 387.691L761.721 389.896C760.639 397.832 752.658 402.87 745.028 400.435C738.279 398.281 734.533 391.084 736.639 384.32L738.704 377.692C741.576 368.47 737.405 358.517 728.814 354.099L721.967 350.578C712.602 345.761 701.184 350.84 698.489 361.02L697.242 365.731C695.271 373.176 687.059 377.04 680.066 373.813C674.872 371.416 671.993 365.776 673.099 360.163L675.543 347.753C677.37 338.477 672.811 329.118 664.382 324.838L660.043 322.635C650.453 317.767 638.803 322.849 635.848 333.19L634.568 337.67C632.736 344.083 626.133 347.873 619.671 346.22C612.705 344.438 608.74 337.093 611.072 330.291L614.238 321.056C617.766 310.766 612.986 299.469 603.143 294.837L602.516 294.542C591.134 289.186 586.51 275.424 592.35 264.282L618.374 214.63Z" fill="#FF0033"/>
</g>
<g filter="url(#filter5_f_2004_443)">
<path d="M970.72 579.466C973.395 567.625 984.002 559.279 996.141 559.465L1098.96 561.041C1112.97 561.255 1124.22 572.678 1124.22 586.696L1124.22 685.616C1124.22 697.181 1116.48 707.317 1105.33 710.366L941.478 755.145C940.838 755.319 940.239 755.617 939.713 756.02C935.479 759.266 929.725 754.681 931.943 749.83L932.292 749.065C932.445 748.731 932.562 748.382 932.643 748.024L970.72 579.466Z" fill="white"/>
</g>
<path d="M228.514 515.051L193.336 500.98L200.372 483C215.225 479.613 239.771 466.271 219.133 440.005L228.514 419.68L259.784 434.533" stroke="white" stroke-width="1.50929"/>
<path d="M43.4473 909.222H309.894L347.152 726.164L389.256 603.047L405.454 608.176L468.899 426.995L873.01 570.911L961.018 568.205L924.308 763.695L1134.33 710.777V468.31L875.715 476.411L761.253 438.598L773.135 381.911L895.149 439.145L931.859 378.126L424.356 49.7917L404.906 75.7195L281.283 1.73633L189.491 274.978L298.012 318.718L282.893 358.141L167.353 318.186L99.873 504.481L216.492 543.904L210.004 561.184L246.183 579.011L229.438 624.909L197.59 612.492L204.61 581.717L117.149 550.925L36.1615 797.724L19.964 799.882L15.1016 867.922L43.4473 909.222Z" stroke="white" stroke-width="1.50929" stroke-miterlimit="10"/>
<path d="M597.492 348.544L635.016 364.179M664.721 371.214L699.118 388.412M728.042 398.575L766.347 414.21" stroke="white" stroke-width="1.50929" stroke-dasharray="9.06 9.06"/>
<path d="M559.123 300.703C536.421 294.307 503.604 283.704 465.674 266.424C409.765 240.95 381.575 227.627 369.818 198.837C366.378 190.408 355.528 159.195 381.153 110.28L315.55 76.9395L254.402 255.556L586.046 378.674L614.798 309.413L569.848 287.145L563.093 300.703H559.123Z" stroke="white" stroke-width="1.50929" stroke-miterlimit="10"/>
<g filter="url(#filter6_d_2004_443)">
<path d="M139.789 437.281L175.427 391.751L185.778 394.525L193.876 451.774L182.14 448.629L180.542 435.935L158.965 430.154L151.234 440.348L139.789 437.281ZM165.631 421.314L179.189 424.947L176.843 406.584L165.631 421.314Z" fill="white"/>
</g>
<g filter="url(#filter7_d_2004_443)">
<path d="M203.854 265.711L215.335 233.912L222.876 236.635L226.379 253.099L239.593 242.671L247.134 245.394L235.652 277.193L228.702 274.683L236.198 253.923L222.344 264.274L222.163 264.209L218.16 247.564L210.713 268.188L203.854 265.711Z" fill="white"/>
</g>
<g filter="url(#filter8_d_2004_443)">
<path d="M393.331 481.218L411.257 431.528L422.189 435.471L407.848 475.224L432.623 484.161L429.037 494.099L393.331 481.218Z" fill="white"/>
</g>
<g filter="url(#filter9_d_2004_443)">
<path d="M675.933 487.672C667.575 485.432 661.088 480.777 656.472 473.707L665.234 467.539C669.132 473.011 673.657 476.437 678.808 477.817C681.092 478.429 683.008 478.473 684.554 477.95C686.1 477.427 687.082 476.388 687.499 474.833C687.889 473.375 687.522 472.027 686.395 470.787C685.282 469.499 682.803 467.767 678.959 465.592C676.239 464.081 674.071 462.745 672.455 461.583C670.852 460.372 669.381 458.963 668.041 457.353C666.75 455.758 665.95 453.981 665.641 452.023C665.394 450.03 665.603 447.794 666.267 445.315C667.504 440.699 670.152 437.424 674.212 435.491C678.32 433.571 682.998 433.314 688.247 434.72C695.487 436.66 701.225 440.515 705.461 446.286L697.364 453.179C693.451 448.537 689.478 445.675 685.445 444.595C683.355 444.035 681.61 444.036 680.209 444.598C678.87 445.125 678.018 446.068 677.654 447.429C677.211 449.081 677.584 450.509 678.772 451.713C679.959 452.917 682.657 454.707 686.864 457.084C692.013 460.027 695.594 462.991 697.606 465.978C699.618 468.966 700.051 472.597 698.905 476.874C697.577 481.83 694.81 485.256 690.605 487.15C686.461 489.008 681.57 489.182 675.933 487.672Z" fill="white"/>
</g>
<g filter="url(#filter10_d_2004_443)">
<path d="M259.642 663.37L274.682 607.243L287.03 610.551L280.456 635.087L309.802 616.653L324.716 620.649L295.483 638.34L310.719 677.056L295.885 673.081L284.888 644.525L276.588 649.52L271.991 666.679L259.642 663.37Z" fill="white"/>
</g>
<g filter="url(#filter11_d_2004_443)">
<path d="M292.219 785.241C284.298 783.118 278.499 778.908 274.821 772.61C271.193 766.325 270.407 759.344 272.465 751.666C274.431 744.328 278.649 738.791 285.118 735.056C291.601 731.272 298.657 730.402 306.287 732.447C310.709 733.631 314.295 735.217 317.044 737.204C319.806 739.142 322.277 741.679 324.457 744.816L315.102 751.449C313.445 749.078 311.731 747.213 309.96 745.853C308.189 744.493 305.919 743.442 303.149 742.7C299.067 741.606 295.169 742.254 291.456 744.645C287.804 747 285.385 750.388 284.2 754.81C282.95 759.475 283.349 763.723 285.396 767.553C287.491 771.395 290.798 773.922 295.318 775.133C299.497 776.253 303.293 776.177 306.707 774.904L308.661 767.615L297.362 764.587L299.96 754.892L322.119 760.83L316.182 782.989C308.37 786.678 300.383 787.428 292.219 785.241Z" fill="#070707"/>
</g>
<g filter="url(#filter12_d_2004_443)">
<path d="M117.87 630.836L131.542 579.811L151.441 585.143C159.411 587.279 165.272 591.453 169.024 597.667C172.788 603.832 173.688 610.584 171.722 617.921C169.768 625.211 165.59 630.602 159.185 634.094C152.829 637.599 145.69 638.291 137.769 636.168L117.87 630.836ZM131.81 623.712L140.484 626.036C145.101 627.273 149.196 626.86 152.77 624.797C156.356 622.685 158.762 619.345 159.986 614.777C161.197 610.257 160.753 606.18 158.654 602.545C156.604 598.922 153.295 596.499 148.727 595.275L140.052 592.951L131.81 623.712Z" fill="black"/>
</g>
<g filter="url(#filter13_d_2004_443)">
<path d="M174.389 742.118L180.678 718.646L198.55 723.435L197.293 728.129L184.584 724.724L183.246 729.72L194.445 732.721L193.187 737.416L181.988 734.415L179.553 743.502L174.389 742.118Z" fill="black"/>
</g>
<g filter="url(#filter14_d_2004_443)">
<path d="M824.461 387.943L850.641 342.061L871.616 354.029C877.427 357.346 880.999 361.44 882.331 366.313C883.457 370.431 882.749 374.718 880.205 379.175C876.191 386.21 870.209 389.081 862.258 387.788L864.116 410.57L852.318 403.838L850.733 383.471L842.933 379.02L834.555 393.702L824.461 387.943ZM848.019 370.106L858.244 375.941C860.691 377.337 862.929 377.832 864.956 377.425C867.009 376.974 868.609 375.744 869.756 373.734C870.978 371.593 871.201 369.577 870.426 367.687C869.676 365.753 868.056 364.075 865.565 362.654L855.537 356.932L848.019 370.106Z" fill="black"/>
</g>
<g filter="url(#filter15_d_2004_443)">
<path d="M1013.81 540.002V497.893H997.732V487.177H1041.5V497.893H1025.43V540.002H1013.81Z" fill="white"/>
</g>
<path d="M646.93 323.05L673.243 336.279L657.858 398.112L628.168 388.932L646.93 323.05Z" stroke="white" stroke-width="1.50929" stroke-miterlimit="10"/>
<path d="M710.285 351.854L736.598 364.74L721.214 424.962L691.523 416.017L710.285 351.854Z" stroke="white" stroke-width="1.50929" stroke-miterlimit="10"/>
<path d="M208.656 808.248L248.337 686.741L279.388 694.842L235.657 821.212L208.656 808.248Z" stroke="white" stroke-width="1.50929" stroke-miterlimit="10"/>
<path d="M180.314 805.278L194.088 770.452L156.284 756.144L173.841 701.051L211.083 712.389L224.857 677.297L211.63 673.513L218.916 656.233L181.127 645.161L172.763 668.118L147.653 661.096L102.297 776.113L180.314 805.278Z" stroke="white" stroke-width="1.50929" stroke-miterlimit="10"/>
<g filter="url(#filter16_d_2004_443)">
<path d="M423.005 111.486L420.979 114.994L426.299 118.066C428.542 119.361 429.951 120.928 430.524 122.767C431.129 124.599 430.877 126.473 429.77 128.39C428.597 130.422 427.028 131.612 425.064 131.96C423.099 132.309 420.938 131.802 418.58 130.441L409.263 125.062L420.884 104.932L436.326 113.848L434.018 117.845L423.005 111.486ZM423.714 121.481L418.854 118.675L415.999 123.621L420.887 126.444C422.938 127.628 424.457 127.367 425.442 125.661C426.36 124.07 425.784 122.676 423.714 121.481ZM452.522 129.487L443.623 144.9L439.396 142.459L444.576 133.487L433.386 138.989L429.274 136.615L438.173 121.202L442.4 123.643L437.204 132.643L448.41 127.112L452.522 129.487ZM457.181 148.165C458.274 148.795 459.381 148.936 460.503 148.587C461.636 148.219 462.528 147.469 463.181 146.338C463.823 145.226 464.007 144.067 463.732 142.86C463.477 141.665 462.812 140.757 461.739 140.137C460.646 139.506 459.528 139.385 458.384 139.772C457.251 140.141 456.358 140.89 455.705 142.021C455.063 143.133 454.875 144.277 455.142 145.454C455.428 146.641 456.107 147.545 457.181 148.165ZM454.948 151.898C452.341 150.393 450.801 148.456 450.329 146.087C449.867 143.699 450.494 141.019 452.21 138.048C452.818 136.994 453.393 136.086 453.935 135.325C454.488 134.545 455.154 133.767 455.935 132.99C456.734 132.225 457.543 131.644 458.36 131.247C459.196 130.861 460.167 130.641 461.271 130.588C462.394 130.547 463.572 130.741 464.806 131.172L473.939 134.413L472.637 138.262L463.219 135.049C460.604 134.178 458.661 134.666 457.389 136.514C458.119 136.092 459.127 135.894 460.415 135.922C461.714 135.931 463.072 136.345 464.491 137.164C466.485 138.315 467.791 140.015 468.41 142.263C469.028 144.512 468.734 146.681 467.528 148.771C466.277 150.937 464.448 152.335 462.04 152.964C459.632 153.593 457.268 153.238 454.948 151.898ZM477.081 143.666L489.475 150.821L480.576 166.235L476.205 163.711L482.946 152.036L479.035 149.778C477.862 151.81 476.795 153.482 475.833 154.793C474.872 156.104 474.003 157.123 473.225 157.849C472.448 158.576 471.681 159.041 470.925 159.244C470.169 159.446 469.463 159.473 468.808 159.325C468.152 159.176 467.412 158.864 466.588 158.388C465.802 157.934 465.113 157.422 464.523 156.851L466.853 153.48C467.164 153.737 467.455 153.943 467.723 154.098C468.183 154.363 468.608 154.468 468.998 154.412C469.399 154.337 469.936 153.983 470.609 153.349C471.312 152.706 472.177 151.608 473.202 150.053C474.239 148.479 475.532 146.35 477.081 143.666ZM507.731 161.361L498.832 176.775L494.605 174.334L499.785 165.362L488.595 170.864L484.483 168.49L493.382 153.077L497.609 155.517L492.413 164.518L503.619 158.987L507.731 161.361ZM517.397 184.847C514.909 185.482 512.477 185.112 510.1 183.74C507.723 182.368 506.181 180.455 505.476 178.003C504.8 175.543 505.115 173.181 506.421 170.919C507.716 168.676 509.608 167.238 512.095 166.603C514.602 165.98 517.044 166.355 519.421 167.727C521.799 169.1 523.325 171.016 524 173.477C524.706 175.929 524.406 178.286 523.1 180.548C521.805 182.791 519.904 184.224 517.397 184.847ZM512.332 180.006C513.54 180.704 514.741 180.86 515.934 180.475C517.138 180.072 518.089 179.266 518.786 178.058C519.462 176.889 519.654 175.67 519.363 174.403C519.102 173.128 518.378 172.148 517.189 171.461C515.981 170.764 514.775 170.617 513.571 171.021C512.377 171.406 511.432 172.202 510.735 173.409C510.06 174.579 509.852 175.801 510.113 177.076C510.404 178.343 511.144 179.32 512.332 180.006ZM542.779 181.597L540.621 185.335L536.049 182.695L529.308 194.37L524.88 191.813L531.621 180.138L527.048 177.499L529.207 173.76L542.779 181.597ZM543.371 202.949C541.032 201.599 539.531 199.748 538.869 197.398C538.218 195.028 538.579 192.655 539.951 190.278C541.246 188.035 543.061 186.552 545.395 185.829C547.729 185.106 549.999 185.381 552.203 186.654C554.638 188.06 556.033 189.939 556.388 192.291C556.742 194.642 556.239 196.997 554.878 199.355C554.745 199.585 554.504 199.958 554.156 200.472L543.43 194.28C543.076 195.379 543.076 196.376 543.429 197.27C543.782 198.164 544.457 198.898 545.454 199.474C546.815 200.26 548.365 200.452 550.105 200.051L551.329 203.709C548.669 204.73 546.016 204.476 543.371 202.949ZM544.95 191.515L551.535 195.317C551.976 194.242 552.081 193.242 551.849 192.316C551.636 191.4 551.079 190.683 550.178 190.162C549.296 189.653 548.387 189.524 547.449 189.776C546.542 190.019 545.709 190.598 544.95 191.515ZM553.901 208.569L562.8 193.156L567.171 195.679L563.519 202.005L572.692 198.867L577.724 201.772L568.407 204.828L569.545 217.6L564.369 214.612L563.643 206.372L560.414 207.383L558.272 211.092L553.901 208.569ZM575.686 221.529C574.171 220.655 573.149 219.503 572.62 218.073C572.11 216.653 572.287 215.196 573.15 213.701C574.091 212.071 575.356 211.166 576.943 210.983C578.55 210.812 580.303 211.274 582.201 212.37C583.485 213.111 584.619 214.047 585.602 215.177L585.752 214.919C586.837 213.04 586.277 211.464 584.072 210.191C582.749 209.427 581.17 208.886 579.335 208.568L580.168 204.601C582.522 204.862 584.754 205.601 586.863 206.818C589.182 208.157 590.585 209.734 591.072 211.549C591.541 213.302 591.151 215.262 589.9 217.429L584.737 226.372L580.51 223.931L581.473 222.263C579.551 222.892 577.622 222.647 575.686 221.529ZM578.752 219.274C579.768 219.86 580.736 220.087 581.656 219.954C582.588 219.801 583.28 219.332 583.734 218.546L584.182 217.77C583.579 216.91 582.76 216.182 581.725 215.584C580.767 215.031 579.908 214.791 579.15 214.864C578.422 214.93 577.853 215.317 577.444 216.026C577.112 216.602 577.067 217.189 577.308 217.789C577.561 218.369 578.042 218.864 578.752 219.274ZM405.632 172.924C404.731 172.404 403.952 171.737 403.297 170.924L404.82 169.35C405.131 169.785 405.67 170.224 406.437 170.667C406.82 170.888 407.198 171.03 407.571 171.092C407.956 171.135 408.519 171 409.262 170.687C410.016 170.356 410.809 169.779 411.642 168.956C412.486 168.114 413.551 166.799 414.839 165.012C416.157 163.217 417.568 161.016 419.073 158.408L421.182 154.756L434.208 162.277L422.587 182.406L420.315 181.095L430.741 163.036L422.172 158.089L420.91 160.274C419.338 162.996 417.862 165.288 416.481 167.149C415.119 169.021 413.924 170.427 412.895 171.367C411.897 172.298 410.927 172.939 409.983 173.289C409.059 173.65 408.268 173.781 407.609 173.682C406.981 173.575 406.322 173.322 405.632 172.924ZM434.193 189.567C432.103 188.361 430.754 186.623 430.147 184.356C429.569 182.08 429.939 179.801 431.256 177.52C432.507 175.353 434.244 173.915 436.469 173.206C438.704 172.477 440.838 172.7 442.87 173.873C444.998 175.101 446.253 176.823 446.636 179.038C447.019 181.253 446.557 183.491 445.251 185.753C445.085 186.041 444.926 186.294 444.774 186.513L432.984 179.706C432.263 181.309 432.132 182.843 432.589 184.309C433.077 185.766 434.001 186.888 435.362 187.674C437.145 188.703 439.112 188.905 441.262 188.281L441.928 190.314C439.186 191.211 436.608 190.962 434.193 189.567ZM434.014 177.923L443.589 183.452C444.285 181.936 444.492 180.471 444.21 179.056C443.959 177.632 443.133 176.517 441.734 175.709C440.468 174.978 439.114 174.823 437.671 175.242C436.227 175.661 435.008 176.555 434.014 177.923ZM444.911 195.295L453.494 180.428L455.708 181.707L450.761 190.276L463.846 186.405L466.578 187.982L456.648 190.837L458.167 202.949L455.55 201.438L454.194 191.568L449.2 192.979L447.125 196.573L444.911 195.295ZM464.821 206.79L472.275 193.879L466.955 190.807L468.084 188.852L480.967 196.29L479.838 198.245L474.518 195.174L467.064 208.085L464.821 206.79ZM489.053 218.212C486.683 218.863 484.396 218.552 482.191 217.279C479.987 216.006 478.583 214.186 477.982 211.82C477.399 209.464 477.728 207.213 478.967 205.066C480.196 202.938 481.985 201.543 484.336 200.88C486.717 200.21 489.009 200.511 491.214 201.784C493.418 203.057 494.822 204.877 495.423 207.243C496.025 209.61 495.706 211.867 494.467 214.014C493.238 216.142 491.433 217.541 489.053 218.212ZM483.394 215.328C484.985 216.247 486.61 216.443 488.268 215.918C489.945 215.404 491.254 214.332 492.195 212.703C493.125 211.092 493.379 209.412 492.959 207.661C492.557 205.921 491.58 204.603 490.027 203.706C488.436 202.788 486.806 202.601 485.137 203.145C483.479 203.67 482.18 204.748 481.239 206.377C480.309 207.987 480.045 209.663 480.446 211.402C480.859 213.123 481.841 214.432 483.394 215.328ZM491.538 228.35L502.778 208.882L504.992 210.161L503.265 213.151C506.033 211.81 508.568 211.803 510.868 213.131C512.766 214.227 514.015 215.894 514.614 218.132C515.225 220.35 514.849 222.638 513.488 224.996C512.149 227.316 510.36 228.775 508.123 229.375C505.885 229.975 503.817 229.727 501.919 228.631C499.581 227.281 498.291 225.13 498.052 222.18L493.752 229.628L491.538 228.35ZM502.662 226.414C504.158 227.278 505.703 227.479 507.297 227.02C508.903 226.541 510.215 225.42 511.233 223.656C512.218 221.95 512.507 220.276 512.1 218.635C511.703 216.975 510.777 215.724 509.32 214.883C507.882 214.053 506.311 213.874 504.607 214.347C502.902 214.82 501.568 215.891 500.605 217.558C499.643 219.226 499.382 220.916 499.825 222.629C500.279 224.322 501.225 225.584 502.662 226.414ZM513.29 234.774L521.873 219.907L524.087 221.185L517.297 232.947L532.915 226.282L535.072 227.527L526.489 242.394L524.275 241.116L531.065 229.355L515.418 236.002L513.29 234.774ZM531.431 245.247L540.014 230.381L542.228 231.659L535.438 243.42L551.056 236.756L553.213 238.001L544.63 252.868L542.415 251.589L549.206 239.828L533.559 246.476L531.431 245.247ZM551.009 232.588C549.904 232.819 548.825 232.63 547.77 232.021C546.716 231.413 546.003 230.567 545.632 229.483C545.279 228.411 545.316 227.307 545.741 226.172L547.448 226.736C547.056 228.299 547.513 229.457 548.816 230.21C550.12 230.962 551.351 230.778 552.509 229.658L553.85 230.854C553.08 231.79 552.133 232.368 551.009 232.588Z" fill="black"/>
</g>
<g filter="url(#filter17_d_2004_443)">
<path d="M632.675 248.299L651.538 234.768L653.46 235.878L651.173 258.979L648.965 257.704L649.61 251.668L639.711 245.953L634.779 249.514L632.675 248.299ZM641.581 244.573L649.869 249.358L651.093 237.698L641.581 244.573ZM654.055 266.29C653.085 265.73 652.263 264.954 651.587 263.964L653.178 262.769C653.629 263.468 654.235 264.038 654.997 264.478C655.604 264.828 656.225 264.932 656.86 264.791C657.486 264.668 658.268 264.253 659.206 263.548L660.826 246.643L663.034 247.918L661.454 261.935L672.231 253.228L674.362 254.458L660.714 265.076C659.352 266.115 658.16 266.72 657.137 266.891C656.105 267.08 655.077 266.88 654.055 266.29ZM665.862 271.929L668.817 266.81L670.272 267.65C672.737 266.141 675.13 263.377 677.45 259.358L678.8 257.02L688.361 262.54L681.626 274.205L683.652 275.375L680.386 280.314L678.723 279.354L680.658 276.002L669.798 269.732L667.499 272.874L665.862 271.929ZM672.403 268.88L679.625 273.05L685.34 263.152L679.702 259.897L678.622 261.767C676.672 265.145 674.599 267.516 672.403 268.88ZM685.376 278.726L693.131 265.294L695.131 266.449L688.996 277.075L703.107 271.054L705.056 272.179L697.301 285.611L695.3 284.456L701.435 273.83L687.298 279.836L685.376 278.726ZM705.013 290.064L711.748 278.398L706.942 275.623L707.962 273.857L719.601 280.577L718.581 282.343L713.775 279.568L707.04 291.234L705.013 290.064ZM726.907 300.383C724.766 300.971 722.699 300.69 720.708 299.54C718.716 298.39 717.448 296.746 716.904 294.608C716.378 292.48 716.675 290.446 717.795 288.506C718.905 286.583 720.522 285.323 722.645 284.724C724.796 284.119 726.868 284.391 728.86 285.541C730.851 286.691 732.119 288.335 732.663 290.473C733.207 292.612 732.918 294.651 731.798 296.591C730.688 298.513 729.058 299.777 726.907 300.383ZM721.795 297.778C723.232 298.608 724.7 298.785 726.198 298.311C727.713 297.846 728.896 296.878 729.746 295.406C730.586 293.951 730.816 292.432 730.436 290.85C730.073 289.278 729.191 288.088 727.788 287.278C726.35 286.448 724.877 286.278 723.369 286.77C721.871 287.245 720.697 288.218 719.847 289.691C719.007 291.146 718.769 292.659 719.131 294.231C719.504 295.785 720.392 296.968 721.795 297.778ZM729.152 309.543L739.307 291.954L741.308 293.109L739.748 295.811C742.249 294.599 744.539 294.593 746.617 295.793C748.332 296.783 749.46 298.289 750.002 300.311C750.553 302.315 750.214 304.382 748.984 306.513C747.774 308.609 746.158 309.927 744.137 310.469C742.115 311.011 740.247 310.787 738.532 309.797C736.419 308.577 735.254 306.634 735.038 303.969L731.153 310.698L729.152 309.543ZM739.203 307.794C740.554 308.574 741.95 308.756 743.391 308.341C744.841 307.908 746.027 306.895 746.947 305.302C747.837 303.76 748.098 302.248 747.73 300.766C747.372 299.266 746.535 298.136 745.218 297.376C743.919 296.626 742.5 296.464 740.96 296.892C739.42 297.319 738.215 298.286 737.345 299.793C736.475 301.3 736.24 302.827 736.64 304.374C737.05 305.904 737.904 307.044 739.203 307.794ZM748.805 315.347L756.56 301.915L758.561 303.07L755.216 308.864L762.958 313.334L766.303 307.54L768.303 308.695L760.548 322.127L758.548 320.972L761.938 315.1L754.196 310.63L750.806 316.502L748.805 315.347ZM768.854 327.303C767.485 326.513 766.523 325.461 765.965 324.146C765.408 322.831 765.514 321.507 766.284 320.173C767.094 318.77 768.239 317.988 769.718 317.826C771.198 317.663 772.812 318.087 774.561 319.097C775.947 319.897 777.205 320.878 778.336 322.039L778.576 321.623C779.256 320.445 779.43 319.345 779.097 318.321C778.764 317.298 777.966 316.421 776.701 315.691C775.385 314.931 773.84 314.466 772.067 314.297L772.415 312.315C774.517 312.513 776.365 313.072 777.959 313.992C779.864 315.092 781.026 316.421 781.443 317.978C781.838 319.454 781.546 321.04 780.566 322.737L775.826 330.947L773.851 329.807L775.006 327.807C772.931 328.641 770.88 328.473 768.854 327.303ZM770.173 325.917C771.421 326.637 772.672 326.909 773.928 326.734C775.184 326.558 776.117 325.942 776.727 324.886L777.447 323.639C776.351 322.498 775.153 321.552 773.854 320.802C772.624 320.092 771.518 319.788 770.535 319.891C769.562 319.976 768.831 320.442 768.341 321.291C767.871 322.105 767.816 322.94 768.177 323.795C768.555 324.66 769.221 325.367 770.173 325.917ZM778.868 332.704L785.973 329.878C785.057 329.025 784.466 328.049 784.2 326.949C783.952 325.859 784.128 324.794 784.728 323.755C785.448 322.508 786.478 321.763 787.819 321.521C789.169 321.261 790.633 321.587 792.209 322.497L798.522 326.142L790.767 339.574L788.767 338.419L791.587 333.534L787.872 331.389C787.596 331.507 786.649 331.907 785.031 332.59C783.413 333.272 782.181 333.785 781.336 334.129L778.868 332.704ZM788.405 329.446L792.562 331.846L795.502 326.753L791.293 324.323C790.306 323.753 789.396 323.529 788.565 323.649C787.76 323.762 787.133 324.208 786.683 324.988C786.223 325.784 786.153 326.586 786.472 327.394C786.808 328.212 787.452 328.896 788.405 329.446ZM625.482 281.097L633.237 267.665L644.877 274.385L637.122 287.817L635.121 286.662L641.856 274.996L634.218 270.586L627.483 282.252L625.482 281.097ZM639.193 294.555L649.348 276.966L651.349 278.121L649.789 280.823C652.29 279.612 654.58 279.606 656.658 280.806C658.373 281.796 659.501 283.302 660.043 285.323C660.594 287.328 660.255 289.395 659.025 291.526C657.815 293.621 656.199 294.94 654.178 295.482C652.156 296.023 650.288 295.799 648.573 294.809C646.46 293.589 645.295 291.647 645.079 288.981L641.194 295.71L639.193 294.555ZM649.244 292.807C650.595 293.587 651.991 293.769 653.432 293.354C654.883 292.921 656.068 291.908 656.988 290.315C657.878 288.773 658.139 287.261 657.771 285.778C657.413 284.278 656.576 283.148 655.259 282.388C653.96 281.638 652.541 281.477 651.001 281.904C649.461 282.332 648.256 283.299 647.386 284.806C646.516 286.312 646.281 287.839 646.681 289.387C647.091 290.917 647.945 292.057 649.244 292.807ZM670.997 305.054C668.856 305.642 666.79 305.361 664.798 304.211C662.806 303.061 661.538 301.417 660.994 299.279C660.468 297.15 660.765 295.116 661.885 293.176C662.995 291.254 664.612 289.993 666.735 289.395C668.886 288.789 670.958 289.062 672.95 290.212C674.942 291.362 676.209 293.006 676.753 295.144C677.297 297.282 677.008 299.322 675.888 301.261C674.778 303.184 673.148 304.448 670.997 305.054ZM665.885 302.449C667.322 303.279 668.79 303.456 670.288 302.982C671.803 302.517 672.986 301.549 673.836 300.076C674.676 298.622 674.906 297.103 674.526 295.521C674.163 293.949 673.281 292.758 671.878 291.948C670.44 291.118 668.967 290.949 667.459 291.441C665.961 291.916 664.787 292.889 663.937 294.361C663.097 295.816 662.859 297.33 663.221 298.902C663.594 300.456 664.482 301.639 665.885 302.449ZM675.642 310.057L683.397 296.625L692.517 301.89L691.497 303.656L684.378 299.546L677.643 311.212L675.642 310.057ZM685.269 321.157L695.424 303.568L697.424 304.723L695.864 307.425C698.365 306.213 700.655 306.207 702.733 307.407C704.448 308.397 705.576 309.903 706.118 311.925C706.67 313.929 706.331 315.997 705.101 318.127C703.891 320.223 702.275 321.542 700.253 322.083C698.231 322.625 696.363 322.401 694.648 321.411C692.535 320.191 691.371 318.248 691.154 315.583L687.269 322.312L685.269 321.157ZM695.32 319.408C696.671 320.188 698.066 320.371 699.507 319.955C700.958 319.523 702.143 318.51 703.063 316.916C703.953 315.375 704.214 313.862 703.846 312.38C703.488 310.88 702.651 309.75 701.335 308.99C700.036 308.24 698.616 308.079 697.076 308.506C695.536 308.933 694.331 309.9 693.461 311.407C692.591 312.914 692.356 314.441 692.756 315.988C693.166 317.518 694.021 318.658 695.32 319.408ZM708.758 329.557C707.389 328.767 706.426 327.714 705.869 326.4C705.312 325.085 705.418 323.761 706.188 322.427C706.998 321.024 708.143 320.241 709.622 320.079C711.101 319.917 712.716 320.341 714.465 321.351C715.851 322.151 717.109 323.132 718.24 324.293L718.48 323.877C719.16 322.699 719.334 321.599 719.001 320.575C718.668 319.552 717.869 318.675 716.605 317.945C715.289 317.185 713.744 316.72 711.971 316.551L712.318 314.569C714.421 314.767 716.269 315.326 717.863 316.246C719.768 317.346 720.929 318.675 721.347 320.232C721.742 321.707 721.449 323.294 720.469 324.991L715.729 333.201L713.755 332.061L714.91 330.061C712.835 330.895 710.784 330.727 708.758 329.557ZM710.077 328.171C711.324 328.891 712.576 329.163 713.832 328.988C715.088 328.812 716.021 328.196 716.631 327.14L717.351 325.893C716.255 324.752 715.057 323.806 713.758 323.056C712.528 322.346 711.422 322.042 710.439 322.144C709.466 322.229 708.735 322.696 708.245 323.545C707.775 324.359 707.72 325.194 708.081 326.049C708.459 326.914 709.125 327.621 710.077 328.171ZM719.967 335.648L727.722 322.216L729.619 323.311L730.553 333.272L739.647 329.101L741.57 330.211L733.815 343.643L731.788 342.473L737.698 332.236L728.806 336.178L727.826 326.536L721.916 336.773L719.967 335.648ZM738.285 346.224L746.04 332.792L747.937 333.887L748.871 343.848L757.966 339.677L759.888 340.787L752.133 354.219L750.107 353.049L756.017 342.812L747.124 346.754L746.144 337.112L740.234 347.349L738.285 346.224ZM760.44 359.396C759.072 358.606 758.109 357.553 757.552 356.239C756.994 354.924 757.101 353.6 757.871 352.266C758.681 350.863 759.825 350.08 761.305 349.918C762.784 349.756 764.398 350.18 766.147 351.19C767.533 351.99 768.791 352.971 769.922 354.132L770.162 353.716C770.842 352.538 771.016 351.438 770.683 350.414C770.35 349.39 769.552 348.514 768.287 347.784C766.971 347.024 765.426 346.559 763.653 346.39L764.001 344.408C766.104 344.606 767.952 345.165 769.545 346.085C771.45 347.185 772.612 348.514 773.029 350.071C773.424 351.546 773.132 353.133 772.152 354.83L767.412 363.04L765.437 361.9L766.592 359.899C764.517 360.734 762.466 360.566 760.44 359.396ZM761.76 358.01C763.007 358.73 764.258 359.002 765.514 358.827C766.77 358.651 767.703 358.035 768.313 356.979L769.033 355.731C767.937 354.59 766.739 353.645 765.44 352.895C764.211 352.185 763.104 351.881 762.121 351.983C761.149 352.068 760.417 352.535 759.927 353.384C759.457 354.198 759.403 355.032 759.763 355.887C760.142 356.752 760.807 357.46 761.76 358.01Z" fill="black"/>
</g>
<g filter="url(#filter18_d_2004_443)">
<path d="M97.4087 852.679L105.112 835.654H106.899L114.603 852.679H112.55L110.57 848.211H101.369L99.3647 852.679H97.4087ZM102.118 846.497H109.821L105.981 837.876L102.118 846.497ZM119.554 856.615C118.652 856.615 117.767 856.406 116.898 855.987L117.525 854.514C118.121 854.82 118.773 854.973 119.481 854.973C120.045 854.973 120.52 854.796 120.906 854.442C121.293 854.103 121.671 853.5 122.041 852.63L116.366 840.194H118.419L122.959 850.602L126.968 840.194H128.948L123.707 853.089C123.176 854.361 122.589 855.263 121.945 855.794C121.301 856.341 120.504 856.615 119.554 856.615ZM130.054 855.794V851.037H131.407C132.517 848.992 133.073 846.102 133.073 842.367V840.194H141.96V851.037H143.843L143.553 855.794H142.008V852.679H131.914L131.576 855.794H130.054ZM133.387 851.037H140.1V841.836H134.86V843.575C134.86 846.714 134.369 849.201 133.387 851.037ZM146.393 852.679V840.194H148.252V850.071L155.666 840.194H157.477V852.679H155.618V842.802L148.18 852.679H146.393ZM164.646 852.679V841.836H160.178V840.194H170.997V841.836H166.529V852.679H164.646ZM184.061 851.061C182.806 852.333 181.252 852.968 179.401 852.968C177.549 852.968 176.004 852.333 174.764 851.061C173.541 849.789 172.929 848.251 172.929 846.448C172.929 844.661 173.549 843.132 174.788 841.86C176.044 840.572 177.598 839.928 179.449 839.928C181.3 839.928 182.846 840.564 184.085 841.836C185.325 843.108 185.945 844.645 185.945 846.448C185.945 848.235 185.317 849.773 184.061 851.061ZM179.449 851.302C180.785 851.302 181.88 850.835 182.733 849.902C183.602 848.968 184.037 847.817 184.037 846.448C184.037 845.096 183.586 843.945 182.685 842.995C181.799 842.045 180.705 841.57 179.401 841.57C178.064 841.57 176.97 842.045 176.116 842.995C175.263 843.929 174.837 845.08 174.837 846.448C174.837 847.801 175.279 848.952 176.165 849.902C177.05 850.835 178.145 851.302 179.449 851.302ZM189.313 856.542V840.194H191.173V842.705C192.428 840.854 194.022 839.928 195.954 839.928C197.548 839.928 198.94 840.524 200.132 841.715C201.323 842.89 201.919 844.468 201.919 846.448C201.919 848.396 201.323 849.966 200.132 851.157C198.94 852.349 197.548 852.944 195.954 852.944C193.99 852.944 192.396 852.059 191.173 850.288V856.542H189.313ZM195.616 851.278C196.872 851.278 197.918 850.843 198.755 849.974C199.593 849.089 200.011 847.905 200.011 846.424C200.011 844.991 199.584 843.832 198.731 842.947C197.878 842.045 196.84 841.594 195.616 841.594C194.409 841.594 193.354 842.053 192.453 842.971C191.551 843.889 191.1 845.048 191.1 846.448C191.1 847.849 191.551 849.008 192.453 849.926C193.354 850.827 194.409 851.278 195.616 851.278ZM205.349 852.679V840.194H207.209V845.579H214.405V840.194H216.265V852.679H214.405V847.221H207.209V852.679H205.349ZM224.138 852.944C222.866 852.944 221.771 852.598 220.853 851.906C219.936 851.214 219.477 850.248 219.477 849.008C219.477 847.704 219.96 846.698 220.926 845.99C221.892 845.281 223.188 844.927 224.814 844.927C226.102 844.927 227.374 845.104 228.629 845.458V845.072C228.629 843.977 228.307 843.14 227.663 842.56C227.019 841.981 226.11 841.691 224.935 841.691C223.711 841.691 222.447 841.989 221.143 842.585L220.588 841.063C222.133 840.355 223.647 840.001 225.128 840.001C226.899 840.001 228.243 840.46 229.161 841.377C230.03 842.247 230.465 843.47 230.465 845.048V852.679H228.629V850.819C227.518 852.236 226.021 852.944 224.138 852.944ZM224.5 851.447C225.659 851.447 226.641 851.133 227.446 850.505C228.251 849.877 228.653 849.073 228.653 848.09V846.931C227.43 846.577 226.214 846.4 225.007 846.4C223.864 846.4 222.97 846.634 222.326 847.1C221.683 847.551 221.361 848.171 221.361 848.96C221.361 849.716 221.658 850.32 222.254 850.771C222.866 851.222 223.614 851.447 224.5 851.447ZM233.292 852.679L237.108 847.849C236.126 847.624 235.321 847.181 234.693 846.521C234.081 845.861 233.775 845.048 233.775 844.082C233.775 842.923 234.194 841.989 235.031 841.281C235.868 840.556 237.019 840.194 238.484 840.194H244.352V852.679H242.493V848.139H239.04C238.895 848.332 238.396 848.992 237.543 850.119C236.689 851.246 236.037 852.099 235.587 852.679H233.292ZM238.629 846.569H242.493V841.836H238.581C237.663 841.836 236.939 842.045 236.408 842.464C235.892 842.866 235.635 843.43 235.635 844.154C235.635 844.895 235.909 845.482 236.456 845.917C237.019 846.352 237.744 846.569 238.629 846.569ZM105.595 875.679V863.194H116.413V875.679H114.554V864.836H107.454V875.679H105.595ZM120.57 879.542V863.194H122.429V865.705C123.685 863.854 125.279 862.928 127.211 862.928C128.805 862.928 130.197 863.524 131.388 864.715C132.58 865.89 133.175 867.468 133.175 869.448C133.175 871.396 132.58 872.966 131.388 874.157C130.197 875.349 128.805 875.944 127.211 875.944C125.247 875.944 123.653 875.059 122.429 873.288V879.542H120.57ZM126.873 874.278C128.128 874.278 129.175 873.843 130.012 872.974C130.849 872.089 131.268 870.905 131.268 869.424C131.268 867.991 130.841 866.832 129.988 865.947C129.135 865.045 128.096 864.594 126.873 864.594C125.665 864.594 124.611 865.053 123.709 865.971C122.808 866.889 122.357 868.048 122.357 869.448C122.357 870.849 122.808 872.008 123.709 872.926C124.611 873.827 125.665 874.278 126.873 874.278ZM146.966 874.061C145.71 875.333 144.157 875.968 142.305 875.968C140.454 875.968 138.908 875.333 137.669 874.061C136.445 872.789 135.833 871.251 135.833 869.448C135.833 867.661 136.453 866.132 137.693 864.86C138.948 863.572 140.502 862.928 142.353 862.928C144.205 862.928 145.75 863.564 146.99 864.836C148.23 866.108 148.849 867.645 148.849 869.448C148.849 871.235 148.222 872.773 146.966 874.061ZM142.353 874.302C143.69 874.302 144.784 873.835 145.638 872.902C146.507 871.968 146.942 870.817 146.942 869.448C146.942 868.096 146.491 866.945 145.589 865.995C144.704 865.045 143.609 864.57 142.305 864.57C140.969 864.57 139.874 865.045 139.021 865.995C138.168 866.929 137.741 868.08 137.741 869.448C137.741 870.801 138.184 871.952 139.069 872.902C139.955 873.835 141.049 874.302 142.353 874.302ZM152.218 875.679V863.194H160.694V864.836H154.077V875.679H152.218ZM163.396 879.542V863.194H165.255V865.705C166.511 863.854 168.105 862.928 170.037 862.928C171.631 862.928 173.023 863.524 174.215 864.715C175.406 865.89 176.002 867.468 176.002 869.448C176.002 871.396 175.406 872.966 174.215 874.157C173.023 875.349 171.631 875.944 170.037 875.944C168.073 875.944 166.479 875.059 165.255 873.288V879.542H163.396ZM169.699 874.278C170.954 874.278 172.001 873.843 172.838 872.974C173.675 872.089 174.094 870.905 174.094 869.424C174.094 867.991 173.667 866.832 172.814 865.947C171.961 865.045 170.922 864.594 169.699 864.594C168.491 864.594 167.437 865.053 166.535 865.971C165.634 866.889 165.183 868.048 165.183 869.448C165.183 870.849 165.634 872.008 166.535 872.926C167.437 873.827 168.491 874.278 169.699 874.278ZM183.151 875.944C181.879 875.944 180.784 875.598 179.867 874.906C178.949 874.214 178.49 873.248 178.49 872.008C178.49 870.704 178.973 869.698 179.939 868.99C180.905 868.281 182.201 867.927 183.827 867.927C185.115 867.927 186.387 868.104 187.643 868.458V868.072C187.643 866.977 187.321 866.14 186.677 865.56C186.033 864.981 185.123 864.691 183.948 864.691C182.724 864.691 181.461 864.989 180.157 865.585L179.601 864.063C181.147 863.355 182.66 863.001 184.141 863.001C185.912 863.001 187.256 863.46 188.174 864.377C189.043 865.247 189.478 866.47 189.478 868.048V875.679H187.643V873.819C186.532 875.236 185.035 875.944 183.151 875.944ZM183.513 874.447C184.672 874.447 185.654 874.133 186.459 873.505C187.264 872.877 187.667 872.073 187.667 871.09V869.931C186.443 869.577 185.228 869.4 184.02 869.4C182.877 869.4 181.984 869.634 181.34 870.1C180.696 870.551 180.374 871.171 180.374 871.96C180.374 872.716 180.672 873.32 181.267 873.771C181.879 874.222 182.628 874.447 183.513 874.447ZM193.417 875.679V863.194H195.179L199.84 869.762L204.501 863.194H206.288V875.679H204.404V866.164L199.792 872.491L195.228 866.164V875.679H193.417ZM210.443 875.679V863.194H212.206L216.867 869.762L221.527 863.194H223.314V875.679H221.431V866.164L216.819 872.491L212.254 866.164V875.679H210.443ZM231.189 875.944C229.917 875.944 228.822 875.598 227.905 874.906C226.987 874.214 226.528 873.248 226.528 872.008C226.528 870.704 227.011 869.698 227.977 868.99C228.943 868.281 230.239 867.927 231.865 867.927C233.153 867.927 234.425 868.104 235.68 868.458V868.072C235.68 866.977 235.358 866.14 234.715 865.56C234.071 864.981 233.161 864.691 231.986 864.691C230.762 864.691 229.498 864.989 228.194 865.585L227.639 864.063C229.184 863.355 230.698 863.001 232.179 863.001C233.95 863.001 235.294 863.46 236.212 864.377C237.081 865.247 237.516 866.47 237.516 868.048V875.679H235.68V873.819C234.57 875.236 233.072 875.944 231.189 875.944ZM231.551 874.447C232.71 874.447 233.692 874.133 234.497 873.505C235.302 872.877 235.705 872.073 235.705 871.09V869.931C234.481 869.577 233.266 869.4 232.058 869.4C230.915 869.4 230.022 869.634 229.378 870.1C228.734 870.551 228.412 871.171 228.412 871.96C228.412 872.716 228.71 873.32 229.305 873.771C229.917 874.222 230.666 874.447 231.551 874.447Z" fill="black"/>
</g>
<g filter="url(#filter19_d_2004_443)">
<path d="M291.795 517.744L274.999 502.053L276.456 498.05L299.409 496.826L297.757 501.365L292.674 501.558L289.637 509.903L293.406 513.318L291.795 517.744ZM286.367 506.957L288.276 501.713L280.922 502.006L286.367 506.957ZM289.542 476.92L293.207 478.254L291.575 482.736L303.021 486.902L301.441 491.243L289.995 487.078L288.364 491.56L284.699 490.226L289.542 476.92ZM310.014 481.723L290.393 474.581L291.953 470.296L294.124 471.086C292.926 469.289 292.68 467.422 293.384 465.486C294.068 463.607 295.362 462.247 297.264 461.407C299.166 460.567 301.329 460.588 303.753 461.47C306.159 462.346 307.82 463.717 308.737 465.583C309.642 467.423 309.749 469.293 309.059 471.191C308.374 473.07 307.052 474.366 305.09 475.078L311.574 477.438L310.014 481.723ZM302.912 473.168C303.942 472.734 304.646 472 305.022 470.967C305.398 469.933 305.331 468.919 304.82 467.924C304.291 466.923 303.396 466.193 302.137 465.735C300.916 465.29 299.79 465.285 298.759 465.718C297.71 466.145 296.997 466.875 296.621 467.909C296.245 468.943 296.321 469.96 296.851 470.962C297.368 471.938 298.256 472.655 299.516 473.113C300.737 473.558 301.869 473.576 302.912 473.168ZM302.437 441.491L317.547 446.991L316.039 451.135L307.244 447.933L313.895 457.027L312.427 461.058L297.317 455.558L298.825 451.414L307.649 454.626L300.97 445.522L302.437 441.491ZM324.849 441.227C324.356 442.581 323.547 443.723 322.421 444.653L319.843 442.087C320.477 441.573 320.897 441.034 321.102 440.47C321.348 439.794 321.201 439.176 320.659 438.617L303.338 439.017L304.99 434.478L316.531 434.784L307.442 427.74L309.063 423.286L322.426 434.727C323.774 435.877 324.625 436.932 324.978 437.89C325.35 438.856 325.307 439.968 324.849 441.227ZM325.093 426.26L309.983 420.76L311.563 416.419L319.393 414.64L314.559 408.187L316.139 403.846L331.249 409.345L329.669 413.687L320.592 410.383L325.265 416.841L317.639 418.758L326.632 422.031L325.093 426.26ZM323.322 538.369L318.925 536.768L313.066 552.865L293.332 545.683L294.143 543.456L311.847 549.899L315.951 538.623L298.247 532.18L299.058 529.952L316.762 536.396L317.695 533.831L324 536.508L323.322 538.369ZM323.435 525.428C322.69 527.476 321.356 528.949 319.433 529.845C317.499 530.716 315.413 530.745 313.177 529.931C311.053 529.158 309.501 527.837 308.521 525.969C307.522 524.095 307.385 522.161 308.11 520.169C308.869 518.083 310.204 516.696 312.115 516.008C314.025 515.32 316.089 515.379 318.307 516.186C318.589 516.289 318.839 516.391 319.058 516.492L314.851 528.05C316.39 528.44 317.776 528.316 319.008 527.679C320.229 527.017 321.081 526.018 321.567 524.684C322.203 522.936 322.075 521.155 321.182 519.34L322.886 518.428C324.114 520.726 324.297 523.06 323.435 525.428ZM313.103 527.414L316.52 518.026C315.062 517.645 313.726 517.69 312.511 518.163C311.284 518.611 310.421 519.52 309.922 520.892C309.47 522.133 309.544 523.362 310.144 524.581C310.743 525.799 311.729 526.743 313.103 527.414ZM331.361 516.634L312.276 509.688L313.066 507.517L315.998 508.584C314.37 506.332 313.967 504.078 314.787 501.822C315.465 499.962 316.752 498.589 318.649 497.705C320.527 496.813 322.622 496.788 324.933 497.63C327.207 498.457 328.787 499.82 329.671 501.717C330.556 503.614 330.659 505.492 329.982 507.353C329.148 509.646 327.437 511.13 324.85 511.806L332.151 514.464L331.361 516.634ZM327.893 507.04C328.427 505.574 328.364 504.167 327.705 502.821C327.027 501.467 325.824 500.476 324.094 499.847C322.422 499.238 320.887 499.243 319.491 499.863C318.076 500.476 317.109 501.497 316.589 502.925C316.076 504.335 316.163 505.761 316.852 507.203C317.54 508.645 318.701 509.664 320.336 510.259C321.972 510.854 323.516 510.821 324.971 510.158C326.406 509.489 327.38 508.449 327.893 507.04ZM336.321 490.024C335.576 492.073 334.242 493.545 332.319 494.442C330.385 495.313 328.299 495.341 326.063 494.527C323.939 493.754 322.387 492.434 321.407 490.566C320.408 488.691 320.271 486.757 320.996 484.765C321.755 482.679 323.09 481.292 325 480.604C326.911 479.916 328.975 479.976 331.193 480.783C331.475 480.885 331.725 480.987 331.944 481.088L327.737 492.646C329.276 493.036 330.662 492.913 331.894 492.276C333.114 491.613 333.967 490.615 334.453 489.28C335.089 487.532 334.961 485.751 334.068 483.936L335.772 483.024C337 485.323 337.183 487.656 336.321 490.024ZM325.989 492.01L329.406 482.622C327.948 482.241 326.612 482.287 325.397 482.76C324.17 483.207 323.307 484.117 322.808 485.489C322.356 486.729 322.43 487.958 323.029 489.177C323.629 490.395 324.615 491.34 325.989 492.01ZM339.736 479.589L325.162 474.284L325.911 472.226L335.559 469.576L329.871 461.345L330.631 459.258L345.205 464.563L344.405 466.762L333.298 462.719L338.724 470.792L329.399 473.432L340.506 477.475L339.736 479.589ZM349.484 446.931C350.435 448.937 350.517 451.021 349.731 453.182C348.944 455.344 347.545 456.878 345.534 457.784C343.529 458.672 341.474 458.733 339.369 457.967C337.283 457.208 335.761 455.834 334.803 453.847C333.833 451.834 333.741 449.746 334.528 447.585C335.315 445.424 336.714 443.89 338.725 442.983C340.737 442.076 342.795 442.006 344.9 442.772C346.986 443.532 348.514 444.918 349.484 446.931ZM347.806 452.418C348.374 450.858 348.294 449.382 347.566 447.989C346.846 446.577 345.687 445.581 344.089 444.999C342.51 444.425 340.975 444.462 339.483 445.111C337.998 445.741 336.979 446.817 336.425 448.339C335.857 449.899 335.946 451.379 336.692 452.779C337.42 454.171 338.582 455.159 340.18 455.74C341.759 456.315 343.29 456.287 344.775 455.657C346.242 455.02 347.252 453.94 347.806 452.418ZM353.604 441.487L339.03 436.183L339.82 434.012L346.106 436.3L349.164 427.899L342.877 425.611L343.667 423.44L358.242 428.745L357.452 430.916L351.081 428.597L348.023 436.998L354.394 439.317L353.604 441.487ZM360.007 423.896L345.432 418.591L346.222 416.42L357.752 420.617L349.372 407.766L350.142 405.651L364.717 410.956L363.927 413.127L352.397 408.93L360.766 421.809L360.007 423.896ZM366.008 407.408L361.991 400.902C361.311 401.952 360.452 402.704 359.414 403.156C358.384 403.59 357.305 403.602 356.177 403.191C354.824 402.699 353.912 401.813 353.441 400.535C352.951 399.25 353.017 397.752 353.639 396.042L356.133 389.192L370.707 394.497L369.917 396.667L364.617 394.738L363.15 398.77C363.314 399.021 363.873 399.884 364.826 401.359C365.779 402.834 366.498 403.957 366.983 404.73L366.008 407.408ZM361.143 398.582L362.785 394.071L357.26 392.06L355.597 396.627C355.208 397.698 355.144 398.633 355.407 399.431C355.658 400.204 356.206 400.744 357.052 401.051C357.916 401.366 358.719 401.296 359.459 400.842C360.206 400.369 360.767 399.616 361.143 398.582Z" fill="black"/>
</g>
<g filter="url(#filter20_d_2004_443)">
<path d="M207.35 780.111C207.203 780.557 206.98 780.963 206.681 781.327L205.844 780.799C206.008 780.621 206.152 780.343 206.277 779.963C206.34 779.773 206.368 779.592 206.361 779.422C206.345 779.248 206.233 779.011 206.026 778.711C205.81 778.408 205.482 778.111 205.042 777.818C204.591 777.522 203.912 777.172 203.003 776.767C202.088 776.35 200.984 775.928 199.693 775.503L197.883 774.906L200.01 768.453L209.982 771.739L209.612 772.865L200.665 769.916L199.266 774.162L200.348 774.518C201.697 774.963 202.847 775.405 203.797 775.844C204.75 776.274 205.482 776.673 205.992 777.042C206.496 777.397 206.869 777.768 207.111 778.153C207.356 778.528 207.486 778.866 207.503 779.166C207.514 779.454 207.463 779.769 207.35 780.111ZM212.081 765.947C211.74 766.982 211.095 767.739 210.148 768.216C209.195 768.681 208.153 768.727 207.023 768.355C205.95 768.001 205.154 767.365 204.635 766.447C204.107 765.525 204.009 764.561 204.341 763.554C204.688 762.5 205.334 761.786 206.278 761.413C207.223 761.04 208.255 761.038 209.376 761.407C209.518 761.454 209.645 761.501 209.756 761.548L207.831 767.389C208.606 767.56 209.297 767.477 209.903 767.14C210.502 766.79 210.913 766.278 211.136 765.604C211.427 764.721 211.335 763.832 210.861 762.939L211.699 762.457C212.348 763.587 212.475 764.75 212.081 765.947ZM206.948 767.098L208.511 762.354C207.777 762.186 207.11 762.229 206.51 762.484C205.903 762.727 205.486 763.194 205.257 763.888C205.051 764.515 205.107 765.128 205.425 765.728C205.743 766.327 206.251 766.784 206.948 767.098ZM213.627 760.679L206.262 758.252L206.623 757.155L210.869 758.554L207.952 753.123L208.398 751.77L210.575 755.899L215.791 754.112L215.364 755.408L211.124 756.917L212.208 758.995L213.989 759.582L213.627 760.679ZM216.878 750.815L210.481 748.707L209.613 751.343L208.644 751.024L210.747 744.641L211.716 744.961L210.847 747.596L217.244 749.704L216.878 750.815ZM219.698 739.047C220.204 740.035 220.277 741.075 219.917 742.167C219.557 743.259 218.882 744.047 217.89 744.532C216.902 745.006 215.876 745.068 214.812 744.718C213.758 744.37 212.976 743.707 212.467 742.729C211.952 741.737 211.874 740.696 212.234 739.603C212.593 738.511 213.269 737.723 214.26 737.239C215.252 736.755 216.279 736.688 217.343 737.039C218.397 737.386 219.182 738.055 219.698 739.047ZM218.944 741.815C219.203 741.026 219.141 740.29 218.756 739.605C218.374 738.91 217.779 738.43 216.972 738.164C216.174 737.901 215.408 737.943 214.672 738.291C213.939 738.628 213.446 739.182 213.193 739.951C212.933 740.739 213 741.478 213.395 742.166C213.78 742.851 214.376 743.326 215.183 743.592C215.981 743.855 216.746 743.818 217.479 743.48C218.202 743.139 218.69 742.584 218.944 741.815ZM223.953 737.014L214.308 733.836L214.67 732.739L216.151 733.227C215.303 732.126 215.067 731.006 215.442 729.866C215.752 728.926 216.374 728.22 217.309 727.749C218.234 727.275 219.28 727.23 220.449 727.615C221.598 727.994 222.408 728.65 222.879 729.585C223.35 730.519 223.431 731.457 223.121 732.397C222.739 733.555 221.907 734.324 220.625 734.701L224.314 735.917L223.953 737.014ZM222.072 732.272C222.317 731.531 222.264 730.83 221.913 730.167C221.554 729.501 220.937 729.024 220.063 728.736C219.218 728.457 218.451 728.484 217.763 728.815C217.065 729.143 216.598 729.668 216.36 730.39C216.125 731.102 216.191 731.813 216.557 732.524C216.923 733.234 217.519 733.725 218.345 733.997C219.172 734.27 219.943 734.229 220.66 733.876C221.367 733.519 221.838 732.985 222.072 732.272ZM224.791 726.802L217.426 724.375L217.787 723.278L223.614 725.198L219.228 718.905L219.581 717.836L226.946 720.263L226.584 721.36L220.758 719.44L225.138 725.748L224.791 726.802ZM227.753 717.815L220.387 715.388L220.749 714.291L226.576 716.211L222.19 709.917L222.542 708.849L229.908 711.276L229.546 712.373L223.719 710.453L228.1 716.761L227.753 717.815ZM220.351 710.322C220.555 710.789 220.571 711.284 220.399 711.806C220.227 712.329 219.918 712.722 219.473 712.986C219.031 713.24 218.54 713.326 217.999 713.242L218.091 712.436C218.818 712.465 219.289 712.156 219.501 711.511C219.714 710.865 219.52 710.337 218.917 709.928L219.323 709.225C219.808 709.479 220.15 709.845 220.351 710.322Z" fill="black"/>
</g>
<g filter="url(#filter21_d_2004_443)">
<path d="M973.576 708.496L970.995 705.915L961.82 715.09L949.446 702.716L952.168 699.993L962.085 709.91L966.964 705.031L957.047 695.114L959.769 692.392L969.687 702.309L971.154 700.842L975.838 706.234L973.576 708.496ZM979.947 697.388C978.509 698.826 976.871 699.556 975.032 699.58C973.182 699.592 971.526 698.867 970.065 697.405C968.686 696.027 967.961 694.418 967.89 692.579C967.82 690.741 968.462 689.144 969.817 687.789C971.314 686.292 972.952 685.644 974.732 685.844C976.511 686.045 978.126 686.87 979.575 688.319C979.717 688.461 979.941 688.708 980.247 689.062L973.653 695.655C974.384 696.127 975.109 696.321 975.828 696.239C976.547 696.156 977.212 695.809 977.825 695.196C978.662 694.359 979.104 693.269 979.151 691.925L982.05 691.749C982.274 693.882 981.573 695.761 979.947 697.388ZM971.939 694.011L975.987 689.963C975.291 689.433 974.584 689.162 973.865 689.15C973.158 689.126 972.528 689.392 971.974 689.946C971.432 690.488 971.161 691.124 971.161 691.855C971.161 692.562 971.42 693.281 971.939 694.011ZM985.29 672.669L994.765 682.145L992.078 684.832L988.454 681.208L985.149 684.513L988.773 688.137L986.086 690.824L976.61 681.349L979.297 678.662L982.939 682.304L986.245 678.998L982.603 675.356L985.29 672.669ZM995.1 662.859L997.399 665.157L994.588 667.968L1001.76 675.145L999.043 677.868L991.865 670.69L989.055 673.501L986.757 671.203L995.1 662.859ZM1008.87 673.696L996.567 661.393L999.254 658.706L1000.62 660.067C1000.34 658.287 1000.82 656.791 1002.03 655.577C1003.21 654.398 1004.66 653.827 1006.4 653.862C1008.13 653.897 1009.75 654.675 1011.27 656.196C1012.78 657.704 1013.56 659.324 1013.59 661.057C1013.63 662.766 1013.05 664.215 1011.86 665.406C1010.68 666.584 1009.22 667.097 1007.49 666.944L1011.56 671.009L1008.87 673.696ZM1006.52 664.734C1007.45 664.769 1008.24 664.463 1008.89 663.815C1009.54 663.166 1009.84 662.377 1009.81 661.446C1009.76 660.503 1009.34 659.637 1008.55 658.847C1007.79 658.081 1006.94 657.68 1006.01 657.645C1005.06 657.598 1004.27 657.898 1003.62 658.547C1002.97 659.195 1002.67 659.99 1002.72 660.933C1002.77 661.852 1003.18 662.707 1003.97 663.496C1004.74 664.262 1005.59 664.675 1006.52 664.734ZM1023.27 653.639L1013.8 644.164L1016.48 641.477L1020.37 645.366L1019.88 638.083L1022.97 634.989L1023.38 642.361L1032.89 644.023L1029.71 647.204L1023.57 646.126L1023.68 648.672L1025.96 650.952L1023.27 653.639ZM1039.22 643.451C1038.37 644.3 1037.36 644.877 1036.18 645.183L1035.14 642.337C1035.8 642.172 1036.31 641.913 1036.66 641.56C1037.08 641.135 1037.19 640.617 1036.98 640.004L1023.75 634.206L1026.6 631.359L1035.21 635.655L1030.83 627.135L1033.62 624.341L1039.68 637.688C1040.29 639.032 1040.57 640.128 1040.49 640.976C1040.44 641.836 1040.01 642.661 1039.22 643.451ZM1036.33 621.626L1043.95 614.007L1053.43 623.482L1050.74 626.169L1043.56 618.992L1041.16 621.396C1042.41 622.645 1043.42 623.747 1044.18 624.702C1044.95 625.657 1045.52 626.487 1045.9 627.194C1046.27 627.902 1046.46 628.55 1046.46 629.139C1046.46 629.728 1046.35 630.247 1046.11 630.695C1045.87 631.142 1045.5 631.62 1045 632.127C1044.51 632.61 1044.01 633.01 1043.48 633.329L1041.48 630.977C1041.73 630.801 1041.93 630.63 1042.1 630.465C1042.38 630.182 1042.54 629.893 1042.57 629.599C1042.6 629.292 1042.44 628.833 1042.11 628.22C1041.78 627.583 1041.15 626.741 1040.22 625.692C1039.28 624.631 1037.98 623.276 1036.33 621.626ZM1055.83 621.08L1046.35 611.605L1049.04 608.918L1052.17 612.047L1054.11 610.103C1055.26 608.959 1056.44 608.311 1057.65 608.158C1058.88 607.993 1060 608.423 1061.03 609.449C1062.03 610.45 1062.49 611.564 1062.42 612.79C1062.35 613.992 1061.75 615.164 1060.6 616.308L1055.83 621.08ZM1055.88 612.401L1054.2 614.08L1056.4 616.272L1058.09 614.575C1058.98 613.691 1059.04 612.872 1058.29 612.118C1057.96 611.788 1057.58 611.646 1057.16 611.694C1056.74 611.729 1056.32 611.965 1055.88 612.401ZM1063.72 594.237L1066.02 596.535L1063.21 599.346L1070.39 606.523L1067.66 609.246L1060.49 602.069L1057.68 604.879L1055.38 602.581L1063.72 594.237ZM1079.81 602.865C1078.96 603.713 1077.95 604.291 1076.77 604.597L1075.72 601.751C1076.38 601.586 1076.89 601.327 1077.24 600.973C1077.67 600.549 1077.78 600.031 1077.56 599.418L1064.34 593.619L1067.19 590.773L1075.8 595.069L1071.41 586.548L1074.2 583.755L1080.27 597.102C1080.88 598.445 1081.15 599.541 1081.08 600.39C1081.02 601.25 1080.6 602.075 1079.81 602.865ZM1088.09 594.475L1075.79 582.171L1078.48 579.484L1079.84 580.845C1079.57 579.066 1080.04 577.569 1081.25 576.355C1082.43 575.177 1083.88 574.605 1085.62 574.641C1087.35 574.676 1088.98 575.454 1090.5 576.974C1092 578.482 1092.78 580.103 1092.81 581.835C1092.85 583.544 1092.27 584.994 1091.08 586.184C1089.9 587.363 1088.45 587.875 1086.71 587.722L1090.78 591.788L1088.09 594.475ZM1085.74 585.512C1086.67 585.548 1087.46 585.241 1088.11 584.593C1088.76 583.945 1089.06 583.155 1089.03 582.224C1088.98 581.281 1088.56 580.415 1087.77 579.626C1087.01 578.86 1086.16 578.459 1085.23 578.424C1084.29 578.376 1083.49 578.677 1082.84 579.325C1082.19 579.973 1081.89 580.769 1081.94 581.712C1081.99 582.631 1082.41 583.485 1083.2 584.275C1083.96 585.041 1084.81 585.453 1085.74 585.512ZM1001.75 716.169L989.379 703.794L998.253 694.92L999.526 696.193L992.049 703.671L995.849 707.471L999.509 703.812C1000.9 702.421 1002.34 701.596 1003.82 701.337C1005.3 701.066 1006.63 701.526 1007.82 702.716C1009.01 703.906 1009.51 705.232 1009.32 706.693C1009.14 708.143 1008.35 709.569 1006.95 710.971L1001.75 716.169ZM1001.88 713.499L1005.57 709.805C1007.75 707.624 1008.01 705.703 1006.35 704.042C1005.58 703.276 1004.72 702.999 1003.75 703.211C1002.77 703.411 1001.76 704.036 1000.71 705.085L997.087 708.709L1001.88 713.499ZM1020.44 695.114C1020.45 696.965 1019.78 698.567 1018.42 699.923C1017.07 701.278 1015.47 701.944 1013.63 701.92C1011.81 701.885 1010.23 701.207 1008.91 699.887C1007.61 698.579 1006.94 697.006 1006.92 695.167C1006.89 693.305 1007.56 691.697 1008.91 690.341C1010.27 688.986 1011.87 688.32 1013.7 688.344C1015.54 688.367 1017.12 689.039 1018.44 690.359C1019.75 691.667 1020.42 693.252 1020.44 695.114ZM1017.24 698.668C1018.22 697.689 1018.68 696.546 1018.62 695.238C1018.57 693.918 1018.05 692.757 1017.04 691.756C1016.05 690.766 1014.88 690.253 1013.53 690.218C1012.18 690.171 1011.03 690.624 1010.08 691.579C1009.1 692.557 1008.65 693.706 1008.72 695.026C1008.78 696.334 1009.31 697.489 1010.31 698.491C1011.3 699.481 1012.47 699.999 1013.81 700.046C1015.14 700.082 1016.28 699.622 1017.24 698.668ZM1025.17 693.038C1024.81 693.391 1024.4 693.709 1023.93 693.992L1022.92 692.666C1023.28 692.478 1023.54 692.301 1023.7 692.136C1023.96 691.877 1024.14 691.635 1024.25 691.411C1024.34 691.176 1024.35 690.828 1024.27 690.368C1024.18 689.885 1023.94 689.337 1023.54 688.724C1023.14 688.111 1022.51 687.304 1021.65 686.302C1020.8 685.289 1019.71 684.116 1018.38 682.785L1017.62 682.024L1024.09 675.554L1033.23 684.694L1031.87 686.055L1023.93 678.118L1020.11 681.936L1020.32 682.148C1021.71 683.539 1022.85 684.776 1023.72 685.86C1024.59 686.945 1025.22 687.846 1025.61 688.565C1026.01 689.272 1026.22 689.92 1026.25 690.51C1026.27 691.099 1026.19 691.57 1026 691.924C1025.83 692.277 1025.56 692.649 1025.17 693.038ZM1036.27 681.647L1027.14 672.508L1028.5 671.147L1031.93 674.576L1034.37 672.137C1035.43 671.076 1036.52 670.44 1037.65 670.228C1038.77 670.004 1039.79 670.351 1040.71 671.271C1041.62 672.178 1042.03 673.215 1041.95 674.382C1041.86 675.537 1041.28 676.639 1040.23 677.688L1036.27 681.647ZM1036.43 679.084L1038.91 676.609C1039.6 675.914 1039.99 675.23 1040.08 674.559C1040.17 673.875 1039.93 673.25 1039.37 672.685C1038.85 672.166 1038.25 671.972 1037.58 672.101C1036.91 672.207 1036.22 672.614 1035.51 673.321L1033.09 675.743L1036.43 679.084ZM1045.79 672.135L1036.65 662.996L1038.01 661.635L1045.95 669.572L1050.4 665.117L1042.46 657.18L1043.82 655.819L1051.76 663.756L1056.22 659.301L1048.28 651.364L1049.66 649.985L1058.8 659.124L1045.79 672.135ZM1064.76 653.552C1063.83 654.483 1062.77 655.031 1061.59 655.196C1060.42 655.361 1059.37 654.99 1058.47 654.083C1057.51 653.128 1057.13 652.038 1057.32 650.812C1057.51 649.587 1058.19 648.379 1059.38 647.188C1060.33 646.246 1061.39 645.444 1062.57 644.784L1062.28 644.501C1061.48 643.7 1060.63 643.323 1059.74 643.37C1058.84 643.417 1057.96 643.871 1057.1 644.731C1056.21 645.627 1055.5 646.77 1054.98 648.161L1053.46 647.454C1054.08 645.804 1054.92 644.437 1056.01 643.352C1057.3 642.056 1058.62 641.408 1059.97 641.408C1061.24 641.408 1062.45 641.985 1063.61 643.14L1069.2 648.726L1067.85 650.07L1066.49 648.709C1066.72 650.559 1066.14 652.174 1064.76 653.552ZM1063.93 652.191C1064.78 651.343 1065.27 650.394 1065.4 649.345C1065.52 648.296 1065.23 647.412 1064.51 646.693L1063.66 645.845C1062.51 646.481 1061.49 647.242 1060.6 648.125C1059.77 648.962 1059.28 649.787 1059.15 650.6C1059.01 651.402 1059.23 652.091 1059.81 652.669C1060.36 653.222 1061.02 653.446 1061.79 653.34C1062.57 653.222 1063.28 652.839 1063.93 652.191ZM1071.27 646.656L1070.52 640.328C1069.64 640.882 1068.73 641.147 1067.78 641.123C1066.85 641.088 1066.03 640.717 1065.33 640.01C1064.48 639.161 1064.1 638.171 1064.19 637.04C1064.28 635.897 1064.85 634.789 1065.93 633.716L1070.22 629.421L1079.36 638.56L1078 639.921L1074.68 636.598L1072.15 639.126C1072.19 639.373 1072.3 640.222 1072.5 641.671C1072.7 643.121 1072.85 644.223 1072.95 644.977L1071.27 646.656ZM1070.7 638.277L1073.53 635.449L1070.06 631.984L1067.2 634.848C1066.53 635.519 1066.15 636.203 1066.07 636.898C1065.99 637.57 1066.21 638.171 1066.74 638.701C1067.28 639.244 1067.91 639.473 1068.63 639.391C1069.36 639.297 1070.05 638.925 1070.7 638.277ZM1087.7 630.22L1078.56 621.08L1079.92 619.719L1087.15 626.949L1085.35 614.292L1086.68 612.966L1095.82 622.106L1094.46 623.467L1087.23 616.237L1089.01 628.912L1087.7 630.22ZM1008.19 743.67L995.819 731.296L997.233 729.881L1008.49 732.126L1006.25 720.866L1007.66 719.451L1020.04 731.826L1018.64 733.222L1008.62 723.199L1010.74 734.336L1010.67 734.407L999.549 732.303L1009.55 742.309L1008.19 743.67ZM1026.23 726.025C1025.3 726.956 1024.24 727.504 1023.06 727.669C1021.88 727.834 1020.84 727.462 1019.93 726.555C1018.98 725.6 1018.6 724.51 1018.79 723.285C1018.97 722.059 1019.66 720.851 1020.85 719.661C1021.8 718.718 1022.86 717.917 1024.04 717.257L1023.75 716.974C1022.95 716.172 1022.1 715.795 1021.21 715.842C1020.31 715.889 1019.43 716.343 1018.57 717.204C1017.68 718.099 1016.97 719.242 1016.45 720.633L1014.93 719.926C1015.54 718.276 1016.39 716.909 1017.48 715.825C1018.77 714.528 1020.09 713.88 1021.44 713.88C1022.71 713.88 1023.92 714.458 1025.08 715.613L1030.66 721.199L1029.32 722.542L1027.96 721.181C1028.18 723.031 1027.61 724.646 1026.23 726.025ZM1025.4 724.663C1026.25 723.815 1026.73 722.866 1026.86 721.817C1026.99 720.769 1026.7 719.885 1025.98 719.166L1025.13 718.317C1023.98 718.954 1022.96 719.714 1022.07 720.598C1021.24 721.434 1020.75 722.259 1020.62 723.072C1020.48 723.874 1020.7 724.563 1021.28 725.141C1021.83 725.695 1022.49 725.919 1023.26 725.813C1024.04 725.695 1024.75 725.312 1025.4 724.663ZM1033.25 718.899C1032.89 719.252 1032.48 719.571 1032.01 719.853L1031 718.528C1031.36 718.339 1031.62 718.162 1031.78 717.997C1032.04 717.738 1032.22 717.496 1032.33 717.272C1032.42 717.037 1032.43 716.689 1032.35 716.229C1032.26 715.746 1032.02 715.198 1031.62 714.585C1031.22 713.973 1030.59 713.165 1029.73 712.164C1028.88 711.15 1027.79 709.977 1026.46 708.646L1025.7 707.886L1032.17 701.416L1041.31 710.555L1039.95 711.916L1032.01 703.979L1028.19 707.797L1028.4 708.009C1029.79 709.4 1030.93 710.637 1031.8 711.722C1032.67 712.806 1033.3 713.707 1033.69 714.426C1034.09 715.133 1034.3 715.782 1034.33 716.371C1034.35 716.96 1034.27 717.432 1034.08 717.785C1033.91 718.139 1033.64 718.51 1033.25 718.899ZM1047.27 704.981C1046.34 705.912 1045.29 706.46 1044.11 706.625C1042.93 706.79 1041.89 706.418 1040.98 705.511C1040.02 704.556 1039.64 703.466 1039.83 702.241C1040.02 701.015 1040.71 699.807 1041.9 698.617C1042.84 697.674 1043.9 696.872 1045.08 696.213L1044.8 695.93C1044 695.128 1043.15 694.751 1042.25 694.798C1041.36 694.845 1040.48 695.299 1039.62 696.159C1038.72 697.055 1038.01 698.198 1037.5 699.589L1035.98 698.882C1036.59 697.232 1037.44 695.865 1038.52 694.781C1039.82 693.484 1041.14 692.836 1042.48 692.836C1043.75 692.836 1044.97 693.414 1046.12 694.568L1051.71 700.155L1050.37 701.498L1049 700.137C1049.23 701.987 1048.65 703.602 1047.27 704.981ZM1046.44 703.619C1047.29 702.771 1047.78 701.822 1047.91 700.773C1048.04 699.724 1047.74 698.841 1047.02 698.122L1046.18 697.273C1045.02 697.91 1044 698.67 1043.12 699.554C1042.28 700.39 1041.8 701.215 1041.67 702.028C1041.53 702.83 1041.74 703.519 1042.32 704.097C1042.88 704.651 1043.54 704.875 1044.3 704.769C1045.08 704.651 1045.79 704.268 1046.44 703.619ZM1053.78 698.085L1053.04 691.756C1052.15 692.31 1051.24 692.575 1050.3 692.551C1049.37 692.516 1048.55 692.145 1047.84 691.438C1046.99 690.589 1046.61 689.599 1046.71 688.468C1046.79 687.325 1047.37 686.217 1048.44 685.144L1052.74 680.849L1061.88 689.988L1060.51 691.349L1057.19 688.026L1054.66 690.554C1054.7 690.801 1054.82 691.65 1055.02 693.099C1055.22 694.549 1055.36 695.651 1055.46 696.405L1053.78 698.085ZM1053.21 689.705L1056.04 686.877L1052.58 683.412L1049.71 686.276C1049.04 686.948 1048.66 687.631 1048.58 688.326C1048.5 688.998 1048.72 689.599 1049.25 690.13C1049.8 690.672 1050.43 690.902 1051.14 690.819C1051.88 690.725 1052.56 690.354 1053.21 689.705ZM1074.55 677.741C1073.23 679.061 1071.65 679.709 1069.81 679.686C1067.97 679.639 1066.4 678.961 1065.09 677.653C1063.78 676.345 1063.11 674.777 1063.07 672.951C1063.04 671.1 1063.68 669.515 1065 668.195C1066.41 666.781 1068.18 666.103 1070.29 666.162L1070.34 667.948C1068.59 667.901 1067.21 668.39 1066.18 669.415C1065.27 670.334 1064.84 671.46 1064.89 672.792C1064.95 674.1 1065.48 675.255 1066.49 676.256C1067.48 677.246 1068.64 677.771 1069.97 677.83C1071.3 677.865 1072.44 677.405 1073.4 676.451C1074.38 675.473 1074.84 674.094 1074.78 672.314L1076.51 672.244C1076.63 674.483 1075.97 676.315 1074.55 677.741ZM1090.48 665.945L1088.2 663.665L1080.31 671.549L1071.18 662.41L1072.54 661.048L1080.47 668.986L1085.6 663.859L1077.66 655.922L1079.02 654.561L1086.96 662.498L1088.34 661.119L1091.61 664.814L1090.48 665.945ZM1095.62 656.666C1094.34 657.95 1092.81 658.592 1091.04 658.592C1089.28 658.569 1087.69 657.856 1086.29 656.453C1084.96 655.122 1084.25 653.578 1084.17 651.822C1084.07 650.054 1084.65 648.546 1085.9 647.296C1087.21 645.988 1088.7 645.411 1090.39 645.564C1092.07 645.717 1093.61 646.489 1095 647.88C1095.18 648.057 1095.33 648.222 1095.46 648.375L1088.22 655.623C1089.24 656.459 1090.33 656.854 1091.49 656.807C1092.64 656.736 1093.64 656.283 1094.47 655.446C1095.57 654.35 1096.1 652.959 1096.06 651.274L1097.67 651.186C1097.79 653.354 1097.11 655.181 1095.62 656.666ZM1087.12 654.527L1093.01 648.64C1092.04 647.839 1091.01 647.403 1089.93 647.332C1088.85 647.238 1087.87 647.621 1087.01 648.481C1086.24 649.259 1085.86 650.213 1085.88 651.345C1085.91 652.476 1086.32 653.537 1087.12 654.527ZM1101.88 649.987L1092.74 640.848L1094.1 639.487L1098.04 643.429L1103.31 638.161L1099.37 634.219L1100.73 632.857L1109.87 641.997L1108.51 643.358L1104.51 639.363L1099.24 644.631L1103.24 648.626L1101.88 649.987ZM1112.91 638.956L1103.77 629.816L1105.13 628.455L1108.56 631.885L1111 629.445C1112.06 628.385 1113.16 627.748 1114.29 627.536C1115.41 627.312 1116.43 627.66 1117.34 628.579C1118.25 629.486 1118.66 630.524 1118.58 631.69C1118.49 632.845 1117.92 633.947 1116.87 634.996L1112.91 638.956ZM1113.07 636.393L1115.54 633.918C1116.24 633.222 1116.63 632.539 1116.71 631.867C1116.8 631.183 1116.57 630.559 1116 629.993C1115.48 629.475 1114.89 629.28 1114.22 629.41C1113.54 629.516 1112.85 629.922 1112.15 630.63L1109.73 633.051L1113.07 636.393ZM1121.96 629.905L1112.82 620.765L1114.18 619.404L1123.32 628.544L1121.96 629.905Z" fill="black"/>
</g>
<path d="M878.922 479.652L877.88 565.427" stroke="white" stroke-width="1.50929" stroke-dasharray="9.06 9.06"/>
<path d="M964.131 563.52L967.258 551.012L1123.6 553.357V524.433H1132.99M484.926 381.375L420.042 357.141L340.305 571.337L408.316 594.789M497.434 347.76L472.419 422.025M623.294 185.941L573.263 282.095M401.281 78.0615L384.082 106.986M216.791 543.195L227.735 514.27M259.786 434.533L282.457 357.923M284.802 696.415L346.559 715.176M188.648 785.533L212.882 792.568M217.573 699.542L241.025 709.704M229.299 624.495L219.136 655.765" stroke="white" stroke-width="1.50929" stroke-dasharray="9.06 9.06"/>
<path d="M17.9531 842.702L170.286 829.579L179.985 806.188" stroke="black" stroke-width="1.50929" stroke-dasharray="9.06 9.06"/>
<path d="M340.301 571.337L325.448 604.952L245.711 578.373" stroke="white" stroke-width="1.50929" stroke-dasharray="9.06 9.06"/>
<defs>
<filter id="filter0_f_2004_443" x="345.752" y="43.4201" width="282.152" height="264.528" filterUnits="userSpaceOnUse" color-interpolation-filters="sRGB">
<feFlood flood-opacity="0" result="BackgroundImageFix"/>
<feBlend mode="normal" in="SourceGraphic" in2="BackgroundImageFix" result="shape"/>
<feGaussianBlur stdDeviation="10.1122" result="effect1_foregroundBlur_2004_443"/>
</filter>
<filter id="filter1_f_2004_443" x="213.705" y="309.78" width="208.082" height="296.624" filterUnits="userSpaceOnUse" color-interpolation-filters="sRGB">
<feFlood flood-opacity="0" result="BackgroundImageFix"/>
<feBlend mode="normal" in="SourceGraphic" in2="BackgroundImageFix" result="shape"/>
<feGaussianBlur stdDeviation="10.1122" result="effect1_foregroundBlur_2004_443"/>
</filter>
<filter id="filter2_f_2004_443" x="0.119284" y="545.064" width="355.965" height="371.492" filterUnits="userSpaceOnUse" color-interpolation-filters="sRGB">
<feFlood flood-opacity="0" result="BackgroundImageFix"/>
<feBlend mode="normal" in="SourceGraphic" in2="BackgroundImageFix" result="shape"/>
<feGaussianBlur stdDeviation="10.1122" result="effect1_foregroundBlur_2004_443"/>
</filter>
<filter id="filter3_f_2004_443" x="146.604" y="688.202" width="106.285" height="115.73" filterUnits="userSpaceOnUse" color-interpolation-filters="sRGB">
<feFlood flood-opacity="0" result="BackgroundImageFix"/>
<feBlend mode="normal" in="SourceGraphic" in2="BackgroundImageFix" result="shape"/>
<feGaussianBlur stdDeviation="10.1122" result="effect1_foregroundBlur_2004_443"/>
</filter>
<filter id="filter4_f_2004_443" x="569.596" y="180.653" width="370.582" height="264.242" filterUnits="userSpaceOnUse" color-interpolation-filters="sRGB">
<feFlood flood-opacity="0" result="BackgroundImageFix"/>
<feBlend mode="normal" in="SourceGraphic" in2="BackgroundImageFix" result="shape"/>
<feGaussianBlur stdDeviation="10.1122" result="effect1_foregroundBlur_2004_443"/>
</filter>
<filter id="filter5_f_2004_443" x="911.225" y="539.237" width="233.222" height="238.096" filterUnits="userSpaceOnUse" color-interpolation-filters="sRGB">
<feFlood flood-opacity="0" result="BackgroundImageFix"/>
<feBlend mode="normal" in="SourceGraphic" in2="BackgroundImageFix" result="shape"/>
<feGaussianBlur stdDeviation="10.1122" result="effect1_foregroundBlur_2004_443"/>
</filter>
<filter id="filter6_d_2004_443" x="133.752" y="385.892" width="79.9298" height="77.9561" filterUnits="userSpaceOnUse" color-interpolation-filters="sRGB">
<feFlood flood-opacity="0" result="BackgroundImageFix"/>
<feColorMatrix in="SourceAlpha" type="matrix" values="0 0 0 0 0 0 0 0 0 0 0 0 0 0 0 0 0 0 127 0" result="hardAlpha"/>
<feOffset dy="6.03715"/>
<feGaussianBlur stdDeviation="3.01858"/>
<feComposite in2="hardAlpha" operator="out"/>
<feColorMatrix type="matrix" values="0 0 0 0 1 0 0 0 0 1 0 0 0 0 1 0 0 0 0.25 0"/>
<feBlend mode="normal" in2="BackgroundImageFix" result="effect1_dropShadow_2004_443"/>
<feBlend mode="normal" in="SourceGraphic" in2="effect1_dropShadow_2004_443" result="shape"/>
</filter>
<filter id="filter7_d_2004_443" x="197.818" y="233.912" width="55.3517" height="55.3546" filterUnits="userSpaceOnUse" color-interpolation-filters="sRGB">
<feFlood flood-opacity="0" result="BackgroundImageFix"/>
<feColorMatrix in="SourceAlpha" type="matrix" values="0 0 0 0 0 0 0 0 0 0 0 0 0 0 0 0 0 0 127 0" result="hardAlpha"/>
<feOffset dy="6.03715"/>
<feGaussianBlur stdDeviation="3.01858"/>
<feComposite in2="hardAlpha" operator="out"/>
<feColorMatrix type="matrix" values="0 0 0 0 1 0 0 0 0 1 0 0 0 0 1 0 0 0 0.25 0"/>
<feBlend mode="normal" in2="BackgroundImageFix" result="effect1_dropShadow_2004_443"/>
<feBlend mode="normal" in="SourceGraphic" in2="effect1_dropShadow_2004_443" result="shape"/>
</filter>
<filter id="filter8_d_2004_443" x="387.295" y="431.527" width="65.7071" height="74.6466" filterUnits="userSpaceOnUse" color-interpolation-filters="sRGB">
<feFlood flood-opacity="0" result="BackgroundImageFix"/>
<feColorMatrix in="SourceAlpha" type="matrix" values="0 0 0 0 0 0 0 0 0 0 0 0 0 0 0 0 0 0 127 0" result="hardAlpha"/>
<feOffset dy="6.03715"/>
<feGaussianBlur stdDeviation="3.01858"/>
<feComposite in2="hardAlpha" operator="out"/>
<feColorMatrix type="matrix" values="0 0 0 0 1 0 0 0 0 1 0 0 0 0 1 0 0 0 0.25 0"/>
<feBlend mode="normal" in2="BackgroundImageFix" result="effect1_dropShadow_2004_443"/>
<feBlend mode="normal" in="SourceGraphic" in2="effect1_dropShadow_2004_443" result="shape"/>
</filter>
<filter id="filter9_d_2004_443" x="648.248" y="429.388" width="66.5196" height="75.378" filterUnits="userSpaceOnUse" color-interpolation-filters="sRGB">
<feFlood flood-opacity="0" result="BackgroundImageFix"/>
<feColorMatrix in="SourceAlpha" type="matrix" values="0 0 0 0 0 0 0 0 0 0 0 0 0 0 0 0 0 0 127 0" result="hardAlpha"/>
<feOffset dy="6.03715"/>
<feGaussianBlur stdDeviation="3.01858"/>
<feComposite in2="hardAlpha" operator="out"/>
<feColorMatrix type="matrix" values="0 0 0 0 1 0 0 0 0 1 0 0 0 0 1 0 0 0 0.25 0"/>
<feBlend mode="normal" in2="BackgroundImageFix" result="effect1_dropShadow_2004_443"/>
<feBlend mode="normal" in="SourceGraphic" in2="effect1_dropShadow_2004_443" result="shape"/>
</filter>
<filter id="filter10_d_2004_443" x="253.603" y="607.242" width="78.1915" height="81.8878" filterUnits="userSpaceOnUse" color-interpolation-filters="sRGB">
<feFlood flood-opacity="0" result="BackgroundImageFix"/>
<feColorMatrix in="SourceAlpha" type="matrix" values="0 0 0 0 0 0 0 0 0 0 0 0 0 0 0 0 0 0 127 0" result="hardAlpha"/>
<feOffset dy="6.03715"/>
<feGaussianBlur stdDeviation="3.01858"/>
<feComposite in2="hardAlpha" operator="out"/>
<feColorMatrix type="matrix" values="0 0 0 0 1 0 0 0 0 1 0 0 0 0 1 0 0 0 0.25 0"/>
<feBlend mode="normal" in2="BackgroundImageFix" result="effect1_dropShadow_2004_443"/>
<feBlend mode="normal" in="SourceGraphic" in2="effect1_dropShadow_2004_443" result="shape"/>
</filter>
<filter id="filter11_d_2004_443" x="259.357" y="725.278" width="74.836" height="77.877" filterUnits="userSpaceOnUse" color-interpolation-filters="sRGB">
<feFlood flood-opacity="0" result="BackgroundImageFix"/>
<feColorMatrix in="SourceAlpha" type="matrix" values="0 0 0 0 0 0 0 0 0 0 0 0 0 0 0 0 0 0 127 0" result="hardAlpha"/>
<feOffset dy="6.03715"/>
<feGaussianBlur stdDeviation="3.01858"/>
<feComposite in2="hardAlpha" operator="out"/>
<feColorMatrix type="matrix" values="0 0 0 0 1 0 0 0 0 1 0 0 0 0 1 0 0 0 0.25 0"/>
<feBlend mode="normal" in2="BackgroundImageFix" result="effect1_dropShadow_2004_443"/>
<feBlend mode="normal" in="SourceGraphic" in2="effect1_dropShadow_2004_443" result="shape"/>
</filter>
<filter id="filter12_d_2004_443" x="111.834" y="579.811" width="72.7618" height="75.6974" filterUnits="userSpaceOnUse" color-interpolation-filters="sRGB">
<feFlood flood-opacity="0" result="BackgroundImageFix"/>
<feColorMatrix in="SourceAlpha" type="matrix" values="0 0 0 0 0 0 0 0 0 0 0 0 0 0 0 0 0 0 127 0" result="hardAlpha"/>
<feOffset dy="6.03715"/>
<feGaussianBlur stdDeviation="3.01858"/>
<feComposite in2="hardAlpha" operator="out"/>
<feColorMatrix type="matrix" values="0 0 0 0 1 0 0 0 0 1 0 0 0 0 1 0 0 0 0.25 0"/>
<feBlend mode="normal" in2="BackgroundImageFix" result="effect1_dropShadow_2004_443"/>
<feBlend mode="normal" in="SourceGraphic" in2="effect1_dropShadow_2004_443" result="shape"/>
</filter>
<filter id="filter13_d_2004_443" x="168.353" y="718.646" width="36.2345" height="40.3341" filterUnits="userSpaceOnUse" color-interpolation-filters="sRGB">
<feFlood flood-opacity="0" result="BackgroundImageFix"/>
<feColorMatrix in="SourceAlpha" type="matrix" values="0 0 0 0 0 0 0 0 0 0 0 0 0 0 0 0 0 0 127 0" result="hardAlpha"/>
<feOffset dy="6.03715"/>
<feGaussianBlur stdDeviation="3.01858"/>
<feComposite in2="hardAlpha" operator="out"/>
<feColorMatrix type="matrix" values="0 0 0 0 1 0 0 0 0 1 0 0 0 0 1 0 0 0 0.25 0"/>
<feBlend mode="normal" in2="BackgroundImageFix" result="effect1_dropShadow_2004_443"/>
<feBlend mode="normal" in="SourceGraphic" in2="effect1_dropShadow_2004_443" result="shape"/>
</filter>
<filter id="filter14_d_2004_443" x="818.424" y="342.062" width="77.9102" height="80.5831" filterUnits="userSpaceOnUse" color-interpolation-filters="sRGB">
<feFlood flood-opacity="0" result="BackgroundImageFix"/>
<feColorMatrix in="SourceAlpha" type="matrix" values="0 0 0 0 0 0 0 0 0 0 0 0 0 0 0 0 0 0 127 0" result="hardAlpha"/>
<feOffset dy="6.03715"/>
<feGaussianBlur stdDeviation="3.01858"/>
<feComposite in2="hardAlpha" operator="out"/>
<feColorMatrix type="matrix" values="0 0 0 0 1 0 0 0 0 1 0 0 0 0 1 0 0 0 0.25 0"/>
<feBlend mode="normal" in2="BackgroundImageFix" result="effect1_dropShadow_2004_443"/>
<feBlend mode="normal" in="SourceGraphic" in2="effect1_dropShadow_2004_443" result="shape"/>
</filter>
<filter id="filter15_d_2004_443" x="991.693" y="487.177" width="55.8438" height="64.8995" filterUnits="userSpaceOnUse" color-interpolation-filters="sRGB">
<feFlood flood-opacity="0" result="BackgroundImageFix"/>
<feColorMatrix in="SourceAlpha" type="matrix" values="0 0 0 0 0 0 0 0 0 0 0 0 0 0 0 0 0 0 127 0" result="hardAlpha"/>
<feOffset dy="6.03715"/>
<feGaussianBlur stdDeviation="3.01858"/>
<feComposite in2="hardAlpha" operator="out"/>
<feColorMatrix type="matrix" values="0 0 0 0 1 0 0 0 0 1 0 0 0 0 1 0 0 0 0.25 0"/>
<feBlend mode="normal" in2="BackgroundImageFix" result="effect1_dropShadow_2004_443"/>
<feBlend mode="normal" in="SourceGraphic" in2="effect1_dropShadow_2004_443" result="shape"/>
</filter>
<filter id="filter16_d_2004_443" x="380.578" y="104.069" width="220.806" height="174.708" filterUnits="userSpaceOnUse" color-interpolation-filters="sRGB">
<feFlood flood-opacity="0" result="BackgroundImageFix"/>
<feColorMatrix in="SourceAlpha" type="matrix" values="0 0 0 0 0 0 0 0 0 0 0 0 0 0 0 0 0 0 127 0" result="hardAlpha"/>
<feOffset dy="6.03715"/>
<feGaussianBlur stdDeviation="2.26393"/>
<feComposite in2="hardAlpha" operator="out"/>
<feColorMatrix type="matrix" values="0 0 0 0 1 0 0 0 0 1 0 0 0 0 1 0 0 0 0.21 0"/>
<feBlend mode="normal" in2="BackgroundImageFix" result="effect1_dropShadow_2004_443"/>
<feBlend mode="normal" in="SourceGraphic" in2="effect1_dropShadow_2004_443" result="shape"/>
</filter>
<filter id="filter17_d_2004_443" x="609.746" y="229.982" width="196.126" height="152.026" filterUnits="userSpaceOnUse" color-interpolation-filters="sRGB">
<feFlood flood-opacity="0" result="BackgroundImageFix"/>
<feColorMatrix in="SourceAlpha" type="matrix" values="0 0 0 0 0 0 0 0 0 0 0 0 0 0 0 0 0 0 127 0" result="hardAlpha"/>
<feOffset dy="6.03715"/>
<feGaussianBlur stdDeviation="2.26393"/>
<feComposite in2="hardAlpha" operator="out"/>
<feColorMatrix type="matrix" values="0 0 0 0 1 0 0 0 0 1 0 0 0 0 1 0 0 0 0.21 0"/>
<feBlend mode="normal" in2="BackgroundImageFix" result="effect1_dropShadow_2004_443"/>
<feBlend mode="normal" in="SourceGraphic" in2="effect1_dropShadow_2004_443" result="shape"/>
</filter>
<filter id="filter18_d_2004_443" x="92.8823" y="835.654" width="155.997" height="54.4537" filterUnits="userSpaceOnUse" color-interpolation-filters="sRGB">
<feFlood flood-opacity="0" result="BackgroundImageFix"/>
<feColorMatrix in="SourceAlpha" type="matrix" values="0 0 0 0 0 0 0 0 0 0 0 0 0 0 0 0 0 0 127 0" result="hardAlpha"/>
<feOffset dy="6.03715"/>
<feGaussianBlur stdDeviation="2.26393"/>
<feComposite in2="hardAlpha" operator="out"/>
<feColorMatrix type="matrix" values="0 0 0 0 1 0 0 0 0 1 0 0 0 0 1 0 0 0 0.21 0"/>
<feBlend mode="normal" in2="BackgroundImageFix" result="effect1_dropShadow_2004_443"/>
<feBlend mode="normal" in="SourceGraphic" in2="effect1_dropShadow_2004_443" result="shape"/>
</filter>
<filter id="filter19_d_2004_443" x="258.593" y="376.318" width="121.153" height="188.753" filterUnits="userSpaceOnUse" color-interpolation-filters="sRGB">
<feFlood flood-opacity="0" result="BackgroundImageFix"/>
<feColorMatrix in="SourceAlpha" type="matrix" values="0 0 0 0 0 0 0 0 0 0 0 0 0 0 0 0 0 0 127 0" result="hardAlpha"/>
<feOffset dy="6.03715"/>
<feGaussianBlur stdDeviation="2.26393"/>
<feComposite in2="hardAlpha" operator="out"/>
<feColorMatrix type="matrix" values="0 0 0 0 1 0 0 0 0 1 0 0 0 0 1 0 0 0 0.21 0"/>
<feBlend mode="normal" in2="BackgroundImageFix" result="effect1_dropShadow_2004_443"/>
<feBlend mode="normal" in="SourceGraphic" in2="effect1_dropShadow_2004_443" result="shape"/>
</filter>
<filter id="filter20_d_2004_443" x="191.968" y="707.877" width="44.7471" height="84.8092" filterUnits="userSpaceOnUse" color-interpolation-filters="sRGB">
<feFlood flood-opacity="0" result="BackgroundImageFix"/>
<feColorMatrix in="SourceAlpha" type="matrix" values="0 0 0 0 0 0 0 0 0 0 0 0 0 0 0 0 0 0 127 0" result="hardAlpha"/>
<feOffset dy="6.03715"/>
<feGaussianBlur stdDeviation="2.26393"/>
<feComposite in2="hardAlpha" operator="out"/>
<feColorMatrix type="matrix" values="0 0 0 0 1 0 0 0 0 1 0 0 0 0 1 0 0 0 0.21 0"/>
<feBlend mode="normal" in2="BackgroundImageFix" result="effect1_dropShadow_2004_443"/>
<feBlend mode="normal" in="SourceGraphic" in2="effect1_dropShadow_2004_443" result="shape"/>
</filter>
<filter id="filter21_d_2004_443" x="944.917" y="569.319" width="194.583" height="196.092" filterUnits="userSpaceOnUse" color-interpolation-filters="sRGB">
<feFlood flood-opacity="0" result="BackgroundImageFix"/>
<feColorMatrix in="SourceAlpha" type="matrix" values="0 0 0 0 0 0 0 0 0 0 0 0 0 0 0 0 0 0 127 0" result="hardAlpha"/>
<feOffset dy="6.03715"/>
<feGaussianBlur stdDeviation="2.26393"/>
<feComposite in2="hardAlpha" operator="out"/>
<feColorMatrix type="matrix" values="0 0 0 0 1 0 0 0 0 1 0 0 0 0 1 0 0 0 0.21 0"/>
<feBlend mode="normal" in2="BackgroundImageFix" result="effect1_dropShadow_2004_443"/>
<feBlend mode="normal" in="SourceGraphic" in2="effect1_dropShadow_2004_443" result="shape"/>
</filter>
</defs>
</svg>
